<svg width="38" height="38" viewBox="0 0 38 38" fill="none" xmlns="http://www.w3.org/2000/svg">
<circle cx="19" cy="19" r="19" fill="#002F51"/>
<path d="M28 19.5519C28 14.8289 24.1944 11 19.5 11C14.8056 11 11 14.8289 11 19.5519C11 23.8204 14.1083 27.3585 18.1719 28V22.024H16.0137V19.5519H18.1719V17.6678C18.1719 15.5245 19.4409 14.3406 21.3825 14.3406C22.3124 14.3406 23.2852 14.5076 23.2852 14.5076V16.6122H22.2134C21.1574 16.6122 20.8281 17.2714 20.8281 17.9478V19.5519H23.1855L22.8087 22.024H20.8281V28C24.8917 27.3585 28 23.8205 28 19.5519Z" fill="white"/>
<path d="M22.5413 21.8155L22.9041 19.301H20.6347V17.6692C20.6347 16.9812 20.9517 16.3107 21.9682 16.3107H23V14.1699C23 14.1699 22.0636 14 21.1683 14C19.2993 14 18.0776 15.2043 18.0776 17.3845V19.301H16V21.8155H18.0776V27.8943C18.5006 27.9648 18.9281 28.0001 19.3562 28C19.7843 28.0001 20.2118 27.9648 20.6347 27.8943V21.8155H22.5413Z" fill="#003B65"/>
</svg>
