<svg width="85" height="36" viewBox="0 0 85 36" fill="none" xmlns="http://www.w3.org/2000/svg">
<path d="M17.6826 0.0258967V0H33.0618V0.0269531L17.6826 0.0258967Z" fill="#162D4C"/>
<path d="M17.6826 0.0258789H33.0618C32.9456 0.585029 32.8314 1.14471 32.7125 1.70333C32.2573 3.84093 31.8007 5.97782 31.3426 8.114C31.1577 8.98232 30.9727 9.85117 30.7856 10.7184C30.7618 10.8241 30.7724 10.8617 30.8913 10.8632C31.3141 10.8696 31.7369 10.8632 32.1597 10.8469C32.3665 10.8346 32.574 10.848 32.7775 10.887C33.1475 10.9652 33.2505 11.2321 33.0291 11.5424C32.9053 11.7038 32.7442 11.8329 32.5598 11.9187C32.1428 12.1338 31.6914 12.2257 31.2322 12.2854C31.0059 12.3202 30.7773 12.3378 30.5483 12.3383C30.4595 12.3383 30.4368 12.3795 30.422 12.4509C30.2811 13.1203 30.1389 13.7911 29.9955 14.4634L28.6906 20.6161C28.6642 20.7409 28.6378 20.8651 28.6129 20.9908C28.6003 21.0617 28.5749 21.1045 28.494 21.0897C28.4721 21.0876 28.4499 21.0876 28.428 21.0897H13.3801C13.1983 21.0897 13.1988 21.0897 13.2379 20.9036C13.9912 17.3564 14.7441 13.8091 15.4967 10.2618C15.6648 9.47048 15.8334 8.67949 16.0025 7.88886C16.0172 7.84311 16.0141 7.79351 15.994 7.74987C15.7694 7.3054 15.6981 6.82288 15.651 6.33561C15.5311 5.09681 15.8191 3.91351 16.1568 2.73918C16.2546 2.40095 16.6224 2.19272 17.0235 2.23817C17.171 2.25455 17.2133 2.21439 17.2407 2.07486C17.3745 1.40684 17.5208 0.741464 17.6635 0.0750288C17.6684 0.0581058 17.6748 0.0416559 17.6826 0.0258789ZM22.9147 10.9658C22.954 10.9615 22.9937 10.9615 23.0331 10.9658C23.5161 11.0757 23.7635 10.7903 23.959 10.4177C23.9812 10.3749 24.0039 10.3316 24.0229 10.2877C24.1588 9.97854 24.1582 9.97801 23.9083 9.75922C23.8918 9.74373 23.8741 9.72959 23.8554 9.71694C23.746 9.65034 23.7465 9.579 23.8137 9.47013C24.0216 9.1319 24.3254 8.86319 24.6866 8.6982C25.0477 8.53322 25.4497 8.47943 25.8415 8.54367C25.9755 8.56182 26.1019 8.61669 26.2067 8.70222C26.5502 8.97757 26.9054 9.23706 27.2679 9.48757C27.6014 9.72434 27.9495 9.93987 28.3101 10.1329C28.4438 10.2026 28.4512 10.1995 28.4391 10.0557C28.4158 9.78405 28.3889 9.51258 28.3582 9.24129C28.29 8.6314 28.1056 8.06961 27.7156 7.57969C27.436 7.22877 27.1702 6.86675 26.8848 6.52005C26.857 6.49021 26.8364 6.45441 26.8246 6.41538C26.8128 6.37636 26.81 6.33516 26.8166 6.29491C26.88 5.79496 26.8811 5.79178 26.5693 5.39647C25.8822 4.52551 25.0662 3.77927 24.2322 3.05311C24.1831 3.01588 24.1259 2.99088 24.0652 2.98018C23.4887 2.83833 22.8988 2.75738 22.3053 2.73866C21.9608 2.7228 21.6415 2.76085 21.3588 2.97225C21.1278 3.14507 20.8831 3.17361 20.593 3.12552C19.6565 2.96961 18.7152 2.84171 17.7751 2.70853C17.5013 2.66995 17.2302 2.60283 16.9506 2.61657C16.7101 2.62767 16.5764 2.71117 16.5156 2.90936C16.216 3.88814 15.9871 4.88118 16.0204 5.9144C16.0378 6.86791 16.3535 7.79203 16.9231 8.55688C17.5573 9.41199 18.4156 9.96057 19.397 10.3321C20.5285 10.7591 21.7113 10.9119 22.912 10.9637L22.9147 10.9658ZM22.809 17.452C22.7535 17.4885 22.717 17.5128 22.68 17.5361C22.2218 17.8236 21.7642 18.1121 21.3033 18.3954C21.2103 18.4525 21.2061 18.4821 21.2927 18.5539C22.0326 19.1644 22.7694 19.7795 23.5077 20.3926C23.5262 20.4084 23.5431 20.4354 23.5822 20.4169C23.5901 20.2805 23.606 20.1405 23.6039 20.0004C23.6036 19.8423 23.6369 19.686 23.7016 19.5417C23.9072 19.0513 24.1038 18.5571 24.3057 18.0651C24.3315 18.0048 24.3433 17.9393 24.34 17.8738C24.3221 17.4383 24.3052 17.0028 24.292 16.5673C24.2897 16.4885 24.2658 16.4119 24.2227 16.3459C23.7555 15.5901 23.2915 14.8328 22.8227 14.0776C22.8019 14.0476 22.7884 14.0131 22.7833 13.977C22.7782 13.9408 22.7815 13.904 22.7931 13.8693C22.8714 13.5993 22.9422 13.3271 23.0199 13.0565C23.0492 12.9506 23.0581 12.8402 23.0463 12.731C23.0188 12.4329 22.9934 12.1348 22.9728 11.8362C22.967 11.7369 22.939 11.7041 22.8338 11.7036C22.1339 11.7041 21.4356 11.6348 20.7494 11.4969C18.9626 11.127 17.5224 10.2327 16.495 8.70698C16.4744 8.67685 16.4644 8.63352 16.4094 8.62136C16.4036 8.6462 16.3973 8.67051 16.392 8.69482C15.9361 10.8574 15.4803 13.0204 15.0248 15.1837C14.9677 15.4538 14.9677 15.4569 15.2393 15.4855C15.4148 15.504 15.5818 15.56 15.7678 15.4924C16.6689 15.1684 17.5758 14.8608 18.4795 14.5411C18.5244 14.5204 18.574 14.5128 18.623 14.519C18.6719 14.5251 18.7182 14.5449 18.7565 14.5759C19.9562 15.4321 21.1583 16.2851 22.3629 17.1349L22.809 17.452ZM18.5842 15.0437C18.5842 15.6905 18.5842 16.3284 18.5842 16.9669C18.5853 17.0758 18.5639 17.1837 18.5213 17.284C18.1725 18.1142 17.8279 18.9466 17.478 19.7769C17.4582 19.8153 17.4486 19.8583 17.4503 19.9015C17.4519 19.9448 17.4648 19.9869 17.4875 20.0237C17.5615 20.1537 17.6271 20.2879 17.6879 20.4248C17.699 20.4594 17.7218 20.4891 17.7523 20.509C17.7828 20.5288 17.8192 20.5375 17.8554 20.5337C18.6968 20.5289 19.5376 20.5337 20.3784 20.53C20.4149 20.53 20.4566 20.5469 20.4958 20.5041C20.4186 20.3455 20.3441 20.1812 20.2606 20.0226C20.2178 19.9463 20.205 19.8568 20.2246 19.7716C20.4308 18.7643 20.6316 17.7554 20.8409 16.7486C20.862 16.6487 20.8409 16.599 20.7616 16.5435C20.0717 16.0633 19.3831 15.5813 18.6957 15.0976C18.6653 15.0653 18.6241 15.0454 18.58 15.0415L18.5842 15.0437ZM30.2191 12.0027C30.3158 12.0027 30.4125 12.0059 30.5092 12.0027C31.0868 11.9794 31.6571 11.9081 32.2067 11.7178C32.3758 11.6673 32.5318 11.5802 32.6634 11.4626C32.7257 11.4028 32.7823 11.3326 32.7458 11.2422C32.7136 11.1618 32.6264 11.156 32.5534 11.1555C32.3774 11.1555 32.2004 11.1508 32.0249 11.1666C31.2826 11.2375 30.5337 11.1819 29.81 11.0022C28.5226 10.6825 27.3752 10.0753 26.314 9.2952C26.1763 9.18763 26.0118 9.11982 25.8383 9.09912C25.3431 9.04627 24.9129 9.16096 24.5927 9.57107C24.5335 9.64665 24.5319 9.69474 24.6096 9.76344C25.0181 10.1255 25.4583 10.4501 25.925 10.7332C27.241 11.5355 28.66 12.0016 30.2148 12.0006L30.2191 12.0027ZM26.2796 11.4309C26.2934 11.5228 26.3061 11.5894 26.3129 11.6608C26.3346 11.888 26.4091 12.1089 26.3864 12.3404C26.3166 13.0502 26.1655 13.7478 26.0725 14.4544C26.0006 15.0046 25.9271 15.5552 25.9567 16.1112C25.9805 16.5604 26.1264 16.9653 26.5074 17.2322C26.8668 17.4837 27.2616 17.5604 27.6765 17.3463C27.7087 17.3327 27.7358 17.3092 27.7539 17.2792C27.7719 17.2492 27.78 17.2142 27.7769 17.1793C27.7752 17.0298 27.7605 16.8808 27.733 16.7338C27.7145 16.6408 27.6844 16.6165 27.584 16.6344C27.2108 16.7016 26.9545 16.4331 27.0275 16.0626C27.0914 15.7371 27.2209 15.4337 27.3446 15.1288C27.6453 14.3968 28.0025 13.6897 28.3149 12.9619C28.3946 12.7569 28.4436 12.5412 28.4602 12.3219C28.4687 12.25 28.4602 12.213 28.3704 12.2014C28.2225 12.1798 28.076 12.1495 27.9317 12.1105C27.3532 11.9587 26.7975 11.7301 26.2796 11.4309Z" fill="#F0BD2D"/>
<path d="M23.1541 27.1974C23.3089 27.2223 23.4608 27.2634 23.607 27.3201C24.0869 27.5204 24.3427 27.8919 24.3659 28.3987C24.4093 29.3347 23.9585 30.0223 23.2143 30.5376C22.7361 30.8669 22.1683 31.0418 21.5876 31.0386C20.8176 31.0444 20.047 31.0386 19.2765 31.0386C19.0704 31.0386 19.0239 30.9804 19.0651 30.7807C19.5312 28.5219 19.9975 26.2631 20.464 24.0043C20.5116 23.7723 20.5697 23.7268 20.8023 23.7268C21.2996 23.7268 21.7969 23.7268 22.2947 23.7268C22.7551 23.7268 23.209 23.7797 23.635 23.9673C24.0969 24.1707 24.4436 24.49 24.4933 25.0163C24.5641 25.7673 24.311 26.3989 23.7058 26.8724C23.5335 26.9994 23.3487 27.1083 23.1541 27.1974ZM21.1157 30.185V30.1771C21.2784 30.1771 21.4412 30.184 21.6035 30.1771C22.3851 30.1396 22.8978 29.6888 23.0389 28.9203C23.153 28.2957 22.8497 27.8634 22.2266 27.7693C21.8376 27.7117 21.4449 27.7555 21.0544 27.7418C20.9899 27.7418 20.9862 27.7777 20.9772 27.8221C20.9339 28.0372 20.8889 28.2523 20.844 28.4669C20.7341 28.9954 20.6263 29.5239 20.5127 30.0524C20.4894 30.1581 20.5095 30.1977 20.6279 30.1898C20.7896 30.1771 20.9529 30.185 21.1157 30.185ZM21.5543 26.8867C21.7212 26.8967 21.8886 26.8872 22.0532 26.8582C22.6605 26.7192 23.124 26.1785 23.1842 25.5369C23.2323 25.0269 23.0077 24.7236 22.5083 24.621C22.2868 24.5756 22.0622 24.5883 21.8392 24.574C21.6859 24.5639 21.6341 24.6105 21.6051 24.7632C21.4777 25.4354 21.3366 26.105 21.1928 26.7747C21.1701 26.8803 21.2018 26.8925 21.2906 26.8867C21.3794 26.8809 21.4661 26.8867 21.5543 26.8867Z" fill="#162D4C"/>
<path d="M29.3063 26.4132C29.3756 26.2415 29.4395 26.0961 29.4924 25.9497C29.5073 25.8919 29.5425 25.8413 29.5916 25.8072C29.6407 25.7732 29.7004 25.7579 29.7598 25.7642C29.9844 25.769 30.209 25.7642 30.4336 25.7642C30.6001 25.7642 30.6487 25.8261 30.617 25.9851C30.3704 27.2038 30.1237 28.4227 29.8771 29.6418C29.8521 29.7401 29.8435 29.8419 29.8517 29.9431C29.8745 30.1122 29.931 30.1719 30.1001 30.1941C30.2058 30.2078 30.2502 30.266 30.2323 30.3653C30.2021 30.5339 30.1673 30.702 30.1266 30.8685C30.1179 30.9193 30.0909 30.9652 30.0507 30.9975C30.0104 31.0298 29.9598 31.0463 29.9083 31.0439C29.6968 31.0538 29.485 31.0331 29.2794 30.9826C28.9544 30.897 28.7768 30.6872 28.7356 30.3484C28.7308 30.3098 28.7292 30.2707 28.7255 30.2253C28.6684 30.239 28.6484 30.2866 28.6198 30.3193C27.9645 31.0349 27.1527 31.2886 26.2067 31.1242C25.5693 31.0133 25.173 30.6153 25.0303 29.9795C24.9082 29.4378 24.9737 28.903 25.0831 28.3697C25.2121 27.7355 25.4293 27.1378 25.823 26.6103C26.5032 25.6913 27.5982 25.4963 28.4311 25.705C28.8164 25.8049 29.1008 26.0385 29.3063 26.4132ZM26.1882 29.3437C26.1883 29.4629 26.1986 29.5819 26.2189 29.6994C26.2765 30.0503 26.4699 30.2448 26.8208 30.3035C27.5079 30.4187 28.1653 30.1201 28.5072 29.5039C28.8464 28.8833 29.0118 28.1827 28.9861 27.476C28.9739 26.9761 28.7366 26.6658 28.3159 26.5427C28.0691 26.475 27.8099 26.465 27.5586 26.5136C27.1136 26.5887 26.8541 26.8867 26.6723 27.2662C26.3573 27.9226 26.2453 28.6271 26.1882 29.3437Z" fill="#162D4C"/>
<path d="M39.4984 23.7717C39.3522 24.4834 39.2056 25.1937 39.0587 25.9026C38.9128 26.6124 38.7675 27.3222 38.6206 28.0367C38.6893 28.0325 38.7115 27.9839 38.7437 27.9521C39.4038 27.2984 40.065 26.6457 40.7203 25.9872C40.787 25.9144 40.869 25.8572 40.9603 25.8196C41.0517 25.7821 41.1502 25.7651 41.2488 25.77C41.4903 25.779 41.7329 25.77 41.9749 25.7747C42.0278 25.7747 42.0944 25.7605 42.1176 25.8133C42.1409 25.8662 42.0764 25.9032 42.04 25.937C41.2296 26.6998 40.4168 27.4612 39.6015 28.2211C39.5159 28.301 39.5158 28.3506 39.5766 28.4447C40.0819 29.2274 40.5808 30.0143 41.0834 30.7997C41.1072 30.8367 41.1309 30.8742 41.1515 30.9123C41.1949 30.9915 41.1711 31.047 41.0813 31.0476C40.6981 31.0476 40.3149 31.0513 39.9323 31.0428C39.8176 31.0428 39.7516 30.9493 39.6955 30.8536C39.3154 30.2004 38.9338 29.5486 38.5508 28.8982C38.5276 28.8585 38.5165 28.8078 38.4578 28.7803C38.3489 29.3088 38.2416 29.8304 38.1333 30.3531C38.0995 30.5169 38.0672 30.6808 38.0302 30.8436C37.9932 31.0063 37.9314 31.0502 37.7734 31.0513C37.5271 31.0513 37.2803 31.0513 37.0335 31.0513C36.8136 31.0513 36.7724 31.0026 36.8163 30.7918C36.9516 30.138 37.089 29.4843 37.2243 28.83C37.5209 27.4027 37.8153 25.9775 38.1074 24.5544C38.112 24.5182 38.1259 24.4838 38.1478 24.4545C38.1696 24.4252 38.1987 24.4021 38.2321 24.3874C38.61 24.2003 38.9847 24.0069 39.361 23.8172C39.401 23.7882 39.449 23.7724 39.4984 23.7717Z" fill="#162D4C"/>
<path d="M32.9879 26.6171C33.1711 26.3718 33.3826 26.1488 33.6178 25.9528C34.1733 25.4983 35.299 25.5691 35.8211 26.0463C36.2439 26.4337 36.3586 26.93 36.2672 27.468C36.1483 28.1651 35.9903 28.8553 35.8523 29.5492C35.8222 29.6998 35.7937 29.8526 35.8354 30.0069C35.8645 30.1152 35.911 30.2024 36.0468 30.2014C36.161 30.2014 36.2054 30.2712 36.1863 30.3763C36.1562 30.5444 36.1224 30.713 36.0833 30.8795C36.0743 30.9283 36.0479 30.9722 36.009 31.0031C35.9702 31.034 35.9215 31.0497 35.8719 31.0475C35.6605 31.0591 35.4487 31.0375 35.244 30.9836C34.7684 30.8499 34.5337 30.5079 34.557 29.9794C34.5723 29.6206 34.6775 29.2781 34.7404 28.9282C34.826 28.4526 34.9692 27.9875 34.9956 27.5013C35.0017 27.4049 35.0017 27.3081 34.9956 27.2117C34.9586 26.6779 34.6257 26.4232 34.1019 26.512C33.9383 26.5384 33.7822 26.5992 33.6437 26.6902C33.5053 26.7813 33.3877 26.9007 33.2986 27.0404C33.0629 27.3861 32.963 27.7803 32.8795 28.1831C32.6974 29.0604 32.5136 29.9377 32.3283 30.815C32.2892 30.9999 32.2263 31.048 32.0371 31.0486C31.7818 31.0486 31.526 31.0486 31.2708 31.0486C31.1085 31.0486 31.0594 30.982 31.09 30.8224C31.3367 29.617 31.5844 28.4117 31.8331 27.2064C31.8606 27.0732 31.8933 26.9421 31.8532 26.8026C31.8215 26.6969 31.7644 26.6282 31.6418 26.6182C31.4943 26.606 31.4626 26.5548 31.4922 26.4068C31.5218 26.2588 31.5514 26.1135 31.5821 25.9676C31.5887 25.912 31.6159 25.8609 31.6582 25.8243C31.7005 25.7877 31.7549 25.7681 31.8109 25.7694C32.0267 25.7556 32.2434 25.7767 32.4525 25.8318C32.8008 25.9327 32.9461 26.1108 32.981 26.4713C32.981 26.5093 32.981 26.5474 32.9879 26.6171Z" fill="#162D4C"/>
<path d="M2.12148 26.8729H2.91951C3.31589 26.8729 3.71226 26.8729 4.10863 26.8729C4.29942 26.8729 4.3454 26.9289 4.30788 27.116C4.27828 27.2624 4.24657 27.4083 4.2138 27.5541C4.17205 27.7381 4.10811 27.7888 3.9078 27.7888C3.30003 27.7888 2.69226 27.7888 2.08502 27.7846C1.96928 27.7846 1.92118 27.8068 1.89634 27.932C1.71243 28.8632 1.51688 29.7918 1.32609 30.722C1.27324 30.9862 1.23097 31.0221 0.956147 31.0221C0.705111 31.0221 0.454074 31.0221 0.203567 31.0221C0.0217635 31.0221 -0.025273 30.9635 0.0117218 30.7848C0.233691 29.7088 0.456188 28.6332 0.679214 27.5578C0.922323 26.3828 1.16473 25.208 1.40643 24.0333C1.46562 23.7458 1.50526 23.7109 1.80227 23.7114L5.2375 23.7178C5.48273 23.7178 5.51972 23.7627 5.46951 23.9968C5.43992 24.1342 5.41191 24.2722 5.37914 24.409C5.33845 24.5798 5.2782 24.6273 5.10274 24.6273C4.30999 24.6273 3.51725 24.6273 2.7245 24.6273C2.6188 24.6273 2.57441 24.6469 2.55221 24.7594C2.4148 25.4597 2.26788 26.1605 2.12148 26.8729Z" fill="#162D4C"/>
<path d="M12.5175 31.1549C12.0993 31.151 11.6843 31.0796 11.2888 30.9435C11.1494 30.9001 11.0225 30.8238 10.9188 30.721C10.8131 30.6106 10.8131 30.5096 10.9056 30.3912C10.9659 30.3157 11.033 30.2459 11.0975 30.173C11.256 29.9917 11.2824 29.9853 11.5203 30.0673C11.8501 30.1782 12.1819 30.2787 12.5323 30.2961C12.8426 30.3125 13.1475 30.3003 13.4403 30.1809C13.5556 30.1357 13.6578 30.0625 13.7377 29.9679C13.8176 29.8733 13.8727 29.7604 13.898 29.6392C13.9471 29.4484 13.8916 29.3168 13.7241 29.2111C13.5458 29.1064 13.3551 29.0244 13.1565 28.9669C12.9314 28.894 12.7067 28.8152 12.4779 28.7555C11.6587 28.5373 11.4616 27.9194 11.6217 27.216C11.8125 26.3783 12.4753 25.7891 13.3563 25.6633C13.9836 25.575 14.603 25.6104 15.1939 25.871C15.3126 25.9179 15.4222 25.9852 15.5178 26.0697C15.6161 26.1638 15.6235 26.242 15.539 26.3461C15.4333 26.4719 15.3233 26.5903 15.2182 26.7161C15.1653 26.7779 15.1077 26.7737 15.0401 26.7541C14.7827 26.6806 14.5369 26.5681 14.2722 26.52C13.9704 26.4671 13.6681 26.4486 13.37 26.5343C13.2415 26.5682 13.1238 26.6346 13.0284 26.7272C12.933 26.8198 12.863 26.9353 12.8251 27.0628C12.73 27.3455 12.8341 27.5474 13.1184 27.6367C13.4704 27.7472 13.824 27.8518 14.1754 27.9591C14.3531 28.0084 14.524 28.0794 14.6844 28.1705C14.9814 28.3475 15.1283 28.6134 15.1458 28.9532C15.1928 29.8654 14.7018 30.5889 13.797 30.944C13.4086 31.0962 13.0038 31.1565 12.5175 31.1549Z" fill="#162D4C"/>
<path d="M16.9348 26.5565C16.7736 26.5565 16.6108 26.5565 16.4485 26.5565C16.2604 26.5565 16.2186 26.5073 16.2546 26.3271C16.2805 26.1976 16.3074 26.0687 16.3386 25.9408C16.3474 25.8878 16.3755 25.84 16.4174 25.8065C16.4594 25.7731 16.5123 25.7563 16.5659 25.7595C16.7112 25.7595 16.8571 25.751 17.0019 25.7595C17.0991 25.7664 17.1287 25.7294 17.144 25.6395C17.1842 25.4017 17.236 25.1639 17.2815 24.9277C17.2899 24.8843 17.2936 24.8447 17.3417 24.822C17.7767 24.6032 18.2111 24.3822 18.6582 24.1555C18.6698 24.2977 18.6238 24.4166 18.6011 24.5371C18.5319 24.907 18.4563 25.2701 18.3781 25.6358C18.3575 25.7315 18.3717 25.768 18.4811 25.7622C18.6608 25.7532 18.8421 25.7579 19.0223 25.7622C19.1682 25.7648 19.2136 25.8176 19.1877 25.9619C19.1619 26.1062 19.1307 26.2373 19.0974 26.3736C19.0641 26.51 18.9795 26.5623 18.8469 26.5612C18.6577 26.5612 18.4679 26.5612 18.2787 26.5612C18.2111 26.5612 18.1767 26.5766 18.1619 26.6484C17.9657 27.6314 17.7677 28.6137 17.5679 29.5953C17.5436 29.7079 17.5493 29.8249 17.5843 29.9346C17.611 30.0099 17.6609 30.0748 17.7268 30.1199C17.7927 30.165 17.8712 30.188 17.9511 30.1857C18.3004 30.1947 18.3036 30.1978 18.237 30.5419C18.2164 30.6476 18.1931 30.757 18.1683 30.8637C18.161 30.9126 18.1362 30.9571 18.0986 30.9891C18.061 31.021 18.0131 31.0383 17.9637 31.0376C17.6826 31.0445 17.3988 31.063 17.1182 31.0133C16.5685 30.915 16.2963 30.5905 16.2868 30.0261C16.2805 29.6561 16.3814 29.3036 16.4538 28.9463C16.6124 28.1626 16.7757 27.3794 16.9363 26.5956C16.9376 26.5825 16.937 26.5694 16.9348 26.5565Z" fill="#162D4C"/>
<path d="M9.63781 26.3493C9.689 26.2836 9.7435 26.2207 9.80111 26.1606C10.1959 25.7864 10.6784 25.6612 11.208 25.6712C11.3137 25.6712 11.3597 25.705 11.3311 25.8239C11.274 26.0586 11.2302 26.2964 11.1794 26.5327C11.1345 26.7441 11.0653 26.7789 10.8544 26.753C10.3138 26.687 9.72236 26.873 9.54637 27.6515C9.31172 28.6926 9.08711 29.7364 8.85933 30.7791C8.80648 31.0281 8.75997 31.0661 8.50207 31.0656C8.269 31.0656 8.0354 31.0656 7.80233 31.0656C7.62 31.0656 7.57508 31.0069 7.61366 30.8272C7.87333 29.6201 8.13335 28.4134 8.39372 27.207C8.42165 27.1006 8.43551 26.991 8.43494 26.8809C8.42649 26.7055 8.36307 26.6325 8.18708 26.604C8.08138 26.5871 8.0317 26.5279 8.05231 26.4201C8.08244 26.2615 8.11256 26.103 8.1485 25.9444C8.15588 25.8911 8.18264 25.8423 8.22367 25.8074C8.26471 25.7725 8.31715 25.754 8.371 25.7552C8.6437 25.751 8.91693 25.7552 9.18171 25.8361C9.42799 25.9111 9.57914 26.0697 9.60028 26.3371L9.63781 26.3493Z" fill="#162D4C"/>
<path d="M5.01446 30.1423C5.02556 29.7654 5.13443 29.4055 5.21265 29.0409C5.42775 28.0367 5.64866 27.0326 5.86799 26.0284C5.90815 25.844 5.97369 25.7938 6.15866 25.7927C6.40529 25.7927 6.65192 25.7927 6.89856 25.7927C7.08406 25.7927 7.12898 25.8456 7.0904 26.0247C6.83073 27.2276 6.57018 28.4301 6.30875 29.6323C6.27297 29.7779 6.25995 29.9282 6.27017 30.0778C6.28603 30.2464 6.34575 30.3103 6.50853 30.3346C6.60577 30.3494 6.65069 30.407 6.63431 30.4995C6.60365 30.6729 6.56877 30.8452 6.52861 31.0159C6.51858 31.0615 6.49303 31.1023 6.45631 31.1312C6.41959 31.1601 6.37398 31.1754 6.32725 31.1744C6.063 31.1829 5.79875 31.1617 5.55036 31.0566C5.182 30.9033 5.00495 30.5936 5.01446 30.1423Z" fill="#162D4C"/>
<path d="M23.478 34.271C23.9241 34.5241 23.9632 35.032 23.5837 35.3982C23.3068 35.6678 22.7022 35.7544 22.3587 35.5748C22.2786 35.5362 22.2112 35.4756 22.1643 35.4C22.1175 35.3245 22.0933 35.2371 22.0944 35.1483C22.084 34.9957 22.1167 34.8433 22.1888 34.7085C22.2608 34.5736 22.3693 34.4618 22.5019 34.3856C22.5679 34.3444 22.6404 34.3132 22.7091 34.2799C22.7091 34.2699 22.7091 34.2577 22.7048 34.2556C22.3291 34.0611 22.4126 33.7044 22.6092 33.4248C22.7086 33.2937 22.851 33.2019 23.0114 33.1653C23.1908 33.118 23.3785 33.1108 23.561 33.1442C23.7365 33.1733 23.8971 33.2462 23.9516 33.4343C23.9848 33.5346 23.9918 33.6416 23.9719 33.7454C23.952 33.8491 23.9059 33.946 23.8379 34.0268C23.7444 34.1367 23.6207 34.2028 23.478 34.271ZM22.5447 35.0161C22.5408 35.0915 22.5649 35.1656 22.6125 35.2241C22.66 35.2827 22.7276 35.3216 22.8021 35.3332C23.1514 35.4083 23.4891 35.051 23.4019 34.699C23.3879 34.6295 23.3502 34.5669 23.2953 34.5219C23.2404 34.4769 23.1717 34.4523 23.1007 34.4522C22.8031 34.4395 22.5436 34.7017 22.5447 35.0161ZM23.2756 33.4476C23.2251 33.4472 23.175 33.4568 23.1283 33.4758C23.0815 33.4949 23.0389 33.5229 23.003 33.5584C22.967 33.5939 22.9385 33.6361 22.9189 33.6827C22.8993 33.7292 22.889 33.7792 22.8887 33.8297C22.8866 33.8647 22.8915 33.8999 22.9031 33.9331C22.9148 33.9663 22.9329 33.9968 22.9565 34.0229C22.98 34.049 23.0086 34.0701 23.0404 34.085C23.0723 34.0999 23.1068 34.1083 23.1419 34.1098C23.3348 34.1129 23.5383 33.8984 23.5425 33.6917C23.5451 33.5469 23.4373 33.4486 23.2756 33.4476Z" fill="#162D4C"/>
<path d="M25.9224 33.6198C25.9115 33.5022 25.8622 33.3914 25.782 33.3045C25.7019 33.2177 25.5954 33.1597 25.479 33.1394C25.3135 33.1098 25.1432 33.1231 24.9843 33.178C24.5287 33.3423 24.3633 33.7134 24.3205 34.1515C24.2756 34.6229 24.5494 34.866 25.0218 34.811C25.2005 34.7899 25.3236 34.69 25.4504 34.5732C25.438 34.7271 25.3893 34.8758 25.3083 35.0071C25.1714 35.2544 24.9669 35.3802 24.6772 35.3316C24.5813 35.3206 24.4866 35.3004 24.3945 35.2714C24.236 35.2116 24.2323 35.3517 24.1873 35.4241C24.1313 35.5145 24.2291 35.534 24.2809 35.5594C24.7179 35.7766 25.1978 35.6831 25.4964 35.2867C25.8706 34.7968 26.0017 34.2286 25.9224 33.6198ZM25.544 33.8539C25.5247 34.0026 25.4767 34.1462 25.4029 34.2767C25.3194 34.4136 25.2047 34.4961 25.0361 34.4881C24.8247 34.4828 24.7322 34.3882 24.737 34.1462C24.7467 34.0026 24.784 33.8623 24.8469 33.7329C24.8864 33.6439 24.952 33.5691 25.035 33.5183C25.1582 33.447 25.294 33.4084 25.4214 33.4898C25.5487 33.5712 25.5678 33.7112 25.544 33.8539Z" fill="#162D4C"/>
<path d="M27.1146 35.0393H26.1792C26.0497 35.0393 26.0249 34.9986 26.0841 34.8807C26.1076 34.8388 26.1363 34.8001 26.1697 34.7655C26.5972 34.2751 27.0317 33.7905 27.4508 33.2931C27.5739 33.1467 27.715 33.1621 27.8678 33.17C27.9539 33.1742 27.9206 33.2456 27.9106 33.2921C27.8359 33.6578 27.7605 34.0232 27.6844 34.3882C27.6714 34.4707 27.6537 34.5524 27.6315 34.6329C27.6014 34.7259 27.6426 34.7312 27.7187 34.7354C27.7784 34.7386 27.8847 34.6826 27.882 34.8147C27.8783 34.9944 27.8392 35.0514 27.705 35.0372C27.5707 35.0229 27.5237 35.0763 27.5152 35.1957C27.5092 35.2392 27.5005 35.2822 27.4894 35.3247C27.4233 35.6481 27.4233 35.6455 27.093 35.6275C27.0111 35.6228 26.9963 35.59 27.0111 35.5218C27.0454 35.367 27.0776 35.2121 27.1146 35.0393ZM27.362 33.8322L26.6089 34.7306C26.8002 34.7306 26.9561 34.7306 27.112 34.7306C27.1217 34.732 27.1316 34.7313 27.141 34.7286C27.1505 34.7259 27.1592 34.7213 27.1668 34.715C27.1744 34.7087 27.1805 34.701 27.1849 34.6922C27.1893 34.6834 27.1918 34.6739 27.1923 34.6641C27.2452 34.3998 27.2996 34.1345 27.3615 33.8317L27.362 33.8322Z" fill="#162D4C"/>
<path d="M12.0393 35.6565C11.8375 35.6562 11.6378 35.6168 11.4511 35.5403C11.4046 35.5202 11.3131 35.508 11.3549 35.4346C11.3966 35.3611 11.404 35.2184 11.5531 35.2538C11.7571 35.308 11.9677 35.3339 12.1788 35.331C12.2898 35.3284 12.3985 35.2992 12.4959 35.2459C12.7417 35.1085 12.7506 34.8463 12.5075 34.7031C12.3879 34.6396 12.2643 34.5838 12.1376 34.5361C11.616 34.3115 11.5192 33.8026 11.9331 33.4083C12.266 33.0912 12.6671 33.0642 13.0915 33.1731C13.1296 33.1832 13.1666 33.1969 13.2041 33.2096C13.4054 33.2788 13.4091 33.2936 13.2992 33.4675C13.2935 33.4802 13.2853 33.4917 13.2752 33.5013C13.265 33.5109 13.253 33.5183 13.24 33.5232C13.2269 33.5281 13.213 33.5304 13.199 33.5299C13.1851 33.5294 13.1713 33.5262 13.1586 33.5203C12.9523 33.4561 12.7355 33.4324 12.5202 33.4506C12.4472 33.4551 12.3763 33.4769 12.3133 33.5142C12.2504 33.5515 12.1972 33.6033 12.1582 33.6652C12.0525 33.8369 12.0916 33.9928 12.2718 34.0811C12.3939 34.1408 12.5229 34.1868 12.6476 34.2396C13.1856 34.4679 13.2617 35.0683 12.7998 35.4287C12.6074 35.5767 12.3532 35.6549 12.0393 35.6565Z" fill="#162D4C"/>
<path d="M15.1579 34.1134C15.2811 33.9808 15.3841 33.8555 15.5559 33.8175C16.0215 33.7149 16.3428 34.0257 16.2477 34.4918C16.2033 34.7111 16.1563 34.9299 16.114 35.1498C16.0992 35.228 16.0902 35.2983 16.1954 35.3416C16.2778 35.3755 16.2065 35.4574 16.2038 35.5176C16.2048 35.5308 16.2031 35.544 16.1988 35.5564C16.1944 35.5689 16.1875 35.5803 16.1785 35.5899C16.1695 35.5996 16.1586 35.6072 16.1465 35.6124C16.1344 35.6176 16.1213 35.6203 16.1082 35.6202C15.8196 35.6529 15.6389 35.4674 15.6896 35.1799C15.7276 34.9638 15.7741 34.7492 15.8164 34.5336C15.8241 34.4988 15.8289 34.4634 15.8307 34.4279C15.8344 34.3026 15.8307 34.1758 15.698 34.1108C15.5839 34.0542 15.4047 34.1023 15.3022 34.2165C15.1997 34.3306 15.1526 34.4807 15.1209 34.634C15.0596 34.9262 14.9962 35.218 14.9386 35.5113C14.938 35.5275 14.934 35.5435 14.9269 35.558C14.9198 35.5726 14.9096 35.5856 14.8972 35.596C14.8847 35.6064 14.8702 35.6141 14.8546 35.6185C14.8389 35.6229 14.8225 35.6241 14.8065 35.6217C14.4973 35.6291 14.4978 35.6318 14.5602 35.329C14.6289 34.9932 14.6971 34.6576 14.7647 34.3222C14.7811 34.2402 14.8044 34.1536 14.6833 34.1229C14.6305 34.1092 14.6421 34.059 14.6558 34.0241C14.6802 33.9633 14.65 33.8751 14.7431 33.8486C14.7878 33.8345 14.8351 33.8303 14.8816 33.8365C14.9282 33.8426 14.9728 33.8588 15.0124 33.8841C15.0519 33.9093 15.0855 33.943 15.1106 33.9826C15.1358 34.0222 15.1519 34.0669 15.1579 34.1134Z" fill="#162D4C"/>
<path d="M19.119 34.8777C19.0048 34.8777 18.8896 34.8835 18.776 34.8777C18.6914 34.8724 18.6703 34.9083 18.6703 34.9834C18.6592 35.2614 18.8093 35.4088 19.0846 35.375C19.1979 35.3607 19.3094 35.3352 19.4176 35.2989C19.5016 35.2709 19.5328 35.2989 19.5661 35.3702C19.5994 35.4416 19.5846 35.4965 19.5133 35.5325C19.2961 35.6428 19.0514 35.6872 18.8093 35.6604C18.3997 35.6202 18.2142 35.3829 18.2528 34.9707C18.2694 34.7467 18.3284 34.5279 18.4267 34.3259C18.6291 33.9227 19.008 33.7366 19.4424 33.8238C19.6951 33.8767 19.8441 34.0421 19.8568 34.2995C19.861 34.3786 19.8557 34.4579 19.8409 34.5357C19.7881 34.7905 19.6824 34.8766 19.4229 34.8819C19.3219 34.8819 19.2205 34.8819 19.1195 34.8819L19.119 34.8777ZM18.7401 34.5886H19.304C19.3256 34.5911 19.3475 34.5875 19.3671 34.5782C19.3867 34.5688 19.4033 34.5541 19.4149 34.5357C19.472 34.438 19.4451 34.2329 19.3621 34.1526C19.2791 34.0722 19.1555 34.0659 19.0328 34.1357C18.8611 34.2324 18.7982 34.4052 18.7401 34.5886Z" fill="#162D4C"/>
<path d="M6.94562 23.7824C7.0862 23.7824 7.22678 23.7792 7.36842 23.7824C7.49632 23.7861 7.54652 23.8448 7.52221 23.9674C7.46725 24.2429 7.40911 24.5174 7.34781 24.7908C7.31557 24.9319 7.24211 24.9895 7.09413 24.9906C6.82988 24.9906 6.56563 24.9906 6.30138 24.9906C6.13649 24.9879 6.08998 24.925 6.12539 24.7644C6.17824 24.507 6.23532 24.2496 6.29293 23.9933C6.32728 23.84 6.39546 23.7856 6.54925 23.7819C6.68084 23.7819 6.8135 23.7819 6.94456 23.7819L6.94562 23.7824Z" fill="#162D4C"/>
<path d="M21.3863 33.6742C21.2436 33.7334 21.1157 33.7868 20.9867 33.8381C20.955 33.8507 20.909 33.8729 20.8895 33.8603C20.8514 33.8359 20.8816 33.7879 20.8837 33.7498C20.8916 33.6124 20.9619 33.5326 21.0951 33.4824C21.3371 33.3894 21.5707 33.2789 21.8101 33.1769C21.845 33.1616 21.8836 33.1241 21.9158 33.1463C21.9481 33.1685 21.9206 33.2197 21.9158 33.2557C21.7641 34.0008 21.6098 34.7455 21.4597 35.4907C21.4397 35.5906 21.3953 35.6265 21.2911 35.6249C20.9904 35.6207 20.9925 35.6249 21.0544 35.3316C21.1643 34.8116 21.2711 34.2905 21.3789 33.7699C21.3826 33.745 21.382 33.7181 21.3863 33.6742Z" fill="#162D4C"/>
<path d="M16.5928 35.0246C16.5982 34.7818 16.6563 34.5431 16.763 34.3249C16.9834 33.8651 17.5711 33.6584 18.0197 33.8846C18.0768 33.9137 18.1831 33.9285 18.1455 34.0337C18.1027 34.151 17.9986 34.2012 17.8961 34.1526C17.4918 33.9623 17.2059 34.2017 17.0975 34.5389C17.0393 34.7051 17.0127 34.8808 17.0193 35.0568C17.033 35.2756 17.1689 35.3919 17.3893 35.3739C17.4938 35.3601 17.5964 35.3339 17.6947 35.2957C17.7476 35.2783 17.7951 35.2614 17.8221 35.3348C17.8443 35.3956 17.8871 35.4485 17.8147 35.5103C17.5922 35.7 17.0182 35.7148 16.7894 35.532C16.6224 35.402 16.5886 35.2201 16.5928 35.0246Z" fill="#162D4C"/>
<path d="M13.4588 35.2227C13.5074 34.9801 13.5645 34.6942 13.6242 34.404C13.6549 34.2534 13.6908 34.1038 13.7172 33.9527C13.7177 33.9364 13.7215 33.9204 13.7286 33.9058C13.7356 33.8911 13.7457 33.8781 13.7581 33.8677C13.7706 33.8572 13.7851 33.8494 13.8007 33.845C13.8163 33.8405 13.8327 33.8394 13.8488 33.8417C14.1612 33.8322 14.1596 33.8295 14.0972 34.1308C14.028 34.4664 13.9593 34.8014 13.8932 35.1376C13.8774 35.219 13.862 35.2961 13.9757 35.34C14.056 35.3706 13.9878 35.4457 13.9852 35.5043C13.9825 35.563 13.9667 35.6058 13.8996 35.619C13.6623 35.6655 13.4588 35.5054 13.4588 35.2227Z" fill="#162D4C"/>
<path d="M14.0999 33.0876C14.1527 33.0876 14.1934 33.0876 14.2325 33.0876C14.2716 33.0876 14.307 33.1045 14.2991 33.1489C14.2811 33.2477 14.2589 33.3455 14.2346 33.4427C14.2251 33.4797 14.1913 33.4924 14.1543 33.4993C13.8425 33.5553 13.8065 33.5115 13.87 33.2055C13.9022 33.0395 14.0216 33.1019 14.0999 33.0876Z" fill="#162D4C"/>
<path d="M22.912 10.9636C21.7113 10.9108 20.5285 10.7591 19.3959 10.3294C18.4145 9.95948 17.5562 9.40932 16.922 8.55421C16.3524 7.78935 16.0367 6.86524 16.0193 5.91172C15.9882 4.87851 16.2149 3.88546 16.5146 2.90668C16.5753 2.7085 16.709 2.625 16.9495 2.6139C17.2291 2.60016 17.5002 2.66675 17.774 2.70586C18.7142 2.83904 19.6554 2.96693 20.5919 3.12284C20.8815 3.17093 21.1267 3.14239 21.3577 2.96958C21.6404 2.75818 21.9597 2.72013 22.3042 2.73598C22.898 2.75605 23.4881 2.83842 24.0647 2.98173C24.1253 2.99244 24.1826 3.01744 24.2317 3.05466C25.0656 3.78082 25.8801 4.52706 26.5687 5.39802C26.8805 5.79228 26.8794 5.79545 26.816 6.29647C26.8095 6.33671 26.8122 6.37791 26.824 6.41694C26.8358 6.45596 26.8564 6.49176 26.8842 6.52161C27.1696 6.8683 27.4354 7.23032 27.715 7.58124C28.105 8.07116 28.2895 8.63296 28.3577 9.24284C28.3883 9.51378 28.4153 9.78525 28.4385 10.0573C28.4507 10.201 28.4433 10.2042 28.3096 10.1344C27.949 9.94142 27.6009 9.72589 27.2674 9.48912C26.9048 9.23861 26.5497 8.97912 26.2061 8.70377C26.1014 8.61824 25.975 8.56337 25.8409 8.54522C25.4492 8.48098 25.0471 8.53477 24.686 8.69975C24.3249 8.86474 24.021 9.13345 23.8131 9.47168C23.746 9.58055 23.7455 9.6519 23.8549 9.71849C23.8736 9.73115 23.8912 9.74528 23.9077 9.76077C24.1577 9.97745 24.1582 9.97798 24.0224 10.2893C24.0034 10.3331 23.9806 10.3765 23.9584 10.4193C23.7629 10.7892 23.5156 11.0773 23.0325 10.9673C22.9926 10.9617 22.9522 10.9605 22.912 10.9636ZM24.1931 6.3546L23.4791 5.5534C23.4194 5.48628 23.3866 5.5534 23.3517 5.58194C22.9902 5.89692 22.6294 6.21296 22.2694 6.53006C22.2387 6.55702 22.1933 6.57499 22.1869 6.63312L24.1931 6.3546Z" fill="#162D4C"/>
<path d="M22.8048 17.4498L22.3603 17.1327C21.1574 16.2808 19.9553 15.4283 18.7538 14.5753C18.7155 14.5443 18.6693 14.5245 18.6204 14.5184C18.5714 14.5122 18.5217 14.5199 18.4769 14.5405C17.5732 14.8576 16.6663 15.1657 15.7652 15.4918C15.5776 15.5594 15.4106 15.5034 15.2367 15.4849C14.965 15.4564 14.965 15.4532 15.0221 15.1831C15.4766 13.0187 15.9313 10.8551 16.3862 8.69211C16.3915 8.6678 16.3978 8.64349 16.4036 8.61865C16.4565 8.63081 16.4686 8.67415 16.4892 8.70427C17.5166 10.23 18.9568 11.1264 20.7436 11.4942C21.4299 11.6321 22.1281 11.7013 22.828 11.7008C22.9337 11.7008 22.9612 11.7341 22.967 11.8335C22.9855 12.1321 23.013 12.4302 23.0405 12.7282C23.0523 12.8375 23.0434 12.9479 23.0141 13.0538C22.9364 13.3244 22.8656 13.5966 22.7873 13.8666C22.7757 13.9013 22.7724 13.9381 22.7775 13.9742C22.7826 14.0104 22.7961 14.0448 22.8169 14.0749C23.2857 14.8301 23.7497 15.5874 24.2169 16.3432C24.26 16.4092 24.2839 16.4858 24.2862 16.5646C24.2994 17.0001 24.3163 17.4356 24.3342 17.8711C24.3375 17.9366 24.3257 18.002 24.2999 18.0624C24.098 18.5544 23.9014 19.0486 23.6958 19.539C23.6311 19.6833 23.5978 19.8396 23.5981 19.9977C23.5981 20.1378 23.5843 20.2778 23.5764 20.4142C23.5373 20.4327 23.5204 20.4057 23.5019 20.3899C22.762 19.7768 22.0274 19.1616 21.2869 18.5512C21.2003 18.4799 21.2045 18.4503 21.2975 18.3927C21.7584 18.1094 22.216 17.8209 22.6742 17.5333C22.7128 17.5106 22.7493 17.4863 22.8048 17.4498Z" fill="#162D4C"/>
<path d="M18.58 15.0415C18.6232 15.0459 18.6634 15.0658 18.6931 15.0975C19.3819 15.5795 20.0705 16.061 20.759 16.5419C20.8393 16.5974 20.8594 16.6476 20.8382 16.747C20.6268 17.7511 20.4281 18.7627 20.222 19.77C20.2023 19.8552 20.2151 19.9447 20.2579 20.021C20.3415 20.1796 20.4165 20.3429 20.4931 20.5025C20.454 20.5453 20.4123 20.5284 20.3758 20.5284C19.535 20.5284 18.6941 20.5284 17.8528 20.5321C17.8166 20.5359 17.7802 20.5272 17.7497 20.5073C17.7192 20.4875 17.6964 20.4578 17.6852 20.4232C17.6244 20.2868 17.5589 20.1521 17.4849 20.0221C17.4621 19.9853 17.4493 19.9432 17.4476 19.8999C17.446 19.8567 17.4555 19.8137 17.4754 19.7753C17.8253 18.945 18.1699 18.1126 18.5187 17.2823C18.5613 17.1821 18.5827 17.0741 18.5816 16.9652C18.5779 16.3263 18.58 15.6884 18.58 15.0415Z" fill="#162D4C"/>
<path d="M30.2148 12.0006C28.66 12.0006 27.241 11.5355 25.9218 10.7322C25.4552 10.449 25.0149 10.1244 24.6064 9.76237C24.5287 9.69367 24.5303 9.64558 24.5895 9.57C24.9098 9.15989 25.34 9.04573 25.8352 9.09805C26.0086 9.11875 26.1731 9.18656 26.3108 9.29413C27.372 10.0742 28.5194 10.6814 29.8068 11.0012C30.5298 11.1797 31.2778 11.2343 32.0191 11.1629C32.194 11.147 32.3711 11.1502 32.5476 11.1518C32.6205 11.1518 32.7061 11.1581 32.74 11.2385C32.7764 11.3288 32.7199 11.397 32.6575 11.4589C32.5259 11.5765 32.37 11.6636 32.2009 11.7141C31.6513 11.9044 31.081 11.9757 30.5034 11.999C30.4082 12.0037 30.3115 12.0006 30.2148 12.0006Z" fill="#162D4C"/>
<path d="M26.2797 11.4309C26.798 11.7305 27.3542 11.9592 27.9333 12.1111C28.0776 12.15 28.2241 12.1804 28.372 12.202C28.4592 12.2136 28.4703 12.2506 28.4618 12.3225C28.4452 12.5418 28.3962 12.7575 28.3165 12.9625C28.0041 13.6892 27.6469 14.3963 27.3462 15.1293C27.2209 15.4343 27.0914 15.7376 27.0291 16.0632C26.9561 16.4331 27.2124 16.7021 27.5856 16.635C27.686 16.6171 27.7161 16.6414 27.7346 16.7344C27.7621 16.8813 27.7768 17.0304 27.7785 17.1799C27.7816 17.2148 27.7735 17.2497 27.7555 17.2798C27.7374 17.3098 27.7103 17.3333 27.6781 17.3469C27.2632 17.5609 26.8684 17.4843 26.509 17.2328C26.128 16.9659 25.9805 16.561 25.9583 16.1118C25.9287 15.5558 26.0022 15.0051 26.0741 14.455C26.1671 13.7489 26.3182 13.0513 26.388 12.341C26.4107 12.1095 26.3351 11.8886 26.3145 11.6613C26.3061 11.5916 26.2934 11.5213 26.2797 11.4309Z" fill="#162D4C"/>
<path d="M24.1931 6.35457L22.1848 6.63308C22.1912 6.57495 22.2377 6.55698 22.2673 6.53003C22.627 6.21293 22.9878 5.89689 23.3496 5.5819C23.3845 5.55178 23.4173 5.48624 23.477 5.55336L24.1931 6.35457Z" fill="#DCAA10"/>
<path d="M47.5885 31L47.37 29.6605H44.539L43.8265 31H42.6295L46.211 24.35H47.522L48.757 31H47.5885ZM45.09 28.6345H47.199L46.705 25.5945L45.09 28.6345ZM51.6213 31.1235C50.8993 31.1235 50.3325 30.8702 49.9208 30.3635C49.5092 29.8568 49.3635 29.2425 49.4838 28.5205C49.6042 27.8238 49.9303 27.2507 50.4623 26.801C51.0007 26.3513 51.6277 26.1265 52.3433 26.1265C52.8247 26.1265 53.2363 26.2373 53.5783 26.459C53.9267 26.6807 54.1737 26.9815 54.3193 27.3615L53.3978 27.8365C53.2142 27.3678 52.831 27.1335 52.2483 27.1335C51.824 27.1335 51.4472 27.2697 51.1178 27.542C50.7885 27.8143 50.5858 28.1658 50.5098 28.5965C50.4402 29.0272 50.5193 29.3882 50.7473 29.6795C50.9753 29.9708 51.3015 30.1165 51.7258 30.1165C52.0045 30.1165 52.261 30.05 52.4953 29.917C52.736 29.784 52.9323 29.6035 53.0843 29.3755L53.9108 29.9075C53.6702 30.3002 53.3472 30.601 52.9418 30.81C52.5365 31.019 52.0963 31.1235 51.6213 31.1235ZM58.9858 26.25H60.0118L59.1758 31H58.1498L58.2448 30.4395C57.8014 30.8955 57.2219 31.1235 56.5063 31.1235C55.8159 31.1235 55.2839 30.8638 54.9103 30.3445C54.5429 29.8188 54.4226 29.2108 54.5493 28.5205C54.6759 27.8112 54.9894 27.2348 55.4898 26.7915C55.9964 26.3482 56.5823 26.1265 57.2473 26.1265C57.9883 26.1265 58.5234 26.4242 58.8528 27.0195L58.9858 26.25ZM56.8103 30.145C57.2156 30.145 57.5798 30.0215 57.9028 29.7745C58.2258 29.5212 58.4379 29.195 58.5393 28.796L58.5868 28.5205C58.6311 28.0835 58.5298 27.7383 58.2828 27.485C58.0358 27.2317 57.7096 27.105 57.3043 27.105C56.8926 27.105 56.5221 27.238 56.1928 27.504C55.8634 27.77 55.6576 28.1342 55.5753 28.5965C55.4993 29.0398 55.5784 29.4103 55.8128 29.708C56.0471 29.9993 56.3796 30.145 56.8103 30.145ZM65.3209 24.35H66.3469L65.1784 31H64.1524L64.2569 30.43C63.8073 30.8923 63.2214 31.1235 62.4994 31.1235C61.8091 31.1235 61.2771 30.8638 60.9034 30.3445C60.5361 29.8188 60.4158 29.2108 60.5424 28.5205C60.6691 27.8112 60.9826 27.2348 61.4829 26.7915C61.9896 26.3482 62.5754 26.1265 63.2404 26.1265C63.9878 26.1265 64.5229 26.4273 64.8459 27.029L65.3209 24.35ZM62.8129 30.145C63.2183 30.145 63.5824 30.0215 63.9054 29.7745C64.2284 29.5212 64.4406 29.1918 64.5419 28.7865L64.5894 28.511C64.6338 28.074 64.5324 27.732 64.2854 27.485C64.0384 27.2317 63.7123 27.105 63.3069 27.105C62.8953 27.105 62.5216 27.238 62.1859 27.504C61.8566 27.77 61.6508 28.1342 61.5684 28.5965C61.4924 29.0398 61.5716 29.4103 61.8059 29.708C62.0466 29.9993 62.3823 30.145 62.8129 30.145ZM69.3759 26.1265C70.0852 26.1265 70.6362 26.3703 71.0289 26.858C71.4279 27.3457 71.5609 27.9378 71.4279 28.6345C71.3709 28.8625 71.3329 29.005 71.3139 29.062H67.5329C67.5392 29.4293 67.6595 29.708 67.8939 29.898C68.1282 30.088 68.4354 30.183 68.8154 30.183C69.379 30.183 69.8255 29.9835 70.1549 29.5845L70.9054 30.1545C70.386 30.8005 69.6609 31.1235 68.7299 31.1235C67.9635 31.1235 67.3777 30.8733 66.9724 30.373C66.567 29.8727 66.4245 29.2583 66.5449 28.53C66.6652 27.8333 66.9914 27.2602 67.5234 26.8105C68.0554 26.3545 68.6729 26.1265 69.3759 26.1265ZM67.6754 28.2165H70.4589C70.4652 27.8238 70.3607 27.5325 70.1454 27.3425C69.9364 27.1525 69.6577 27.0575 69.3094 27.0575C68.9357 27.0575 68.6032 27.162 68.3119 27.371C68.0269 27.5737 67.8147 27.8555 67.6754 28.2165ZM77.8981 26.1265C78.4238 26.1265 78.8259 26.3038 79.1046 26.6585C79.3896 27.0132 79.4814 27.4787 79.3801 28.055L78.8671 31H77.8411L78.3446 28.1215C78.4016 27.7922 78.3636 27.5388 78.2306 27.3615C78.0976 27.1778 77.8854 27.086 77.5941 27.086C77.2964 27.086 77.0368 27.1842 76.8151 27.3805C76.5934 27.5768 76.4446 27.8745 76.3686 28.2735L75.8841 31H74.8581L75.3616 28.1215C75.4186 27.7922 75.3838 27.5388 75.2571 27.3615C75.1368 27.1778 74.9341 27.086 74.6491 27.086C74.3641 27.086 74.1076 27.1778 73.8796 27.3615C73.6579 27.5388 73.4996 27.808 73.4046 28.169L72.9106 31H71.8846L72.7206 26.25H73.7466L73.6516 26.7725C74.0443 26.3418 74.5224 26.1265 75.0861 26.1265C75.7004 26.1265 76.1121 26.3798 76.3211 26.8865C76.7328 26.3798 77.2584 26.1265 77.8981 26.1265ZM83.8438 26.25H84.9838L82.2953 31.152C81.6303 32.387 80.7563 32.9697 79.6733 32.9L79.8443 31.9405C80.1547 31.9595 80.4143 31.8962 80.6233 31.7505C80.8323 31.6048 81.0318 31.3642 81.2218 31.0285L81.3073 30.8955L80.1388 26.25H81.1933L82.0103 29.7365L83.8438 26.25Z" fill="#162D4C"/>
</svg>
