<svg width="139" height="58" viewBox="0 0 139 58" fill="none" xmlns="http://www.w3.org/2000/svg">
<path d="M28.7493 0.0421041V0H53.7537V0.0438217L28.7493 0.0421041Z" fill="#162D4C"/>
<path d="M28.7492 0.0419922H53.7537C53.5646 0.951087 53.379 1.86104 53.1857 2.76928C52.4456 6.24469 51.7032 9.71896 50.9585 13.1921C50.6577 14.6038 50.357 16.0165 50.0528 17.4265C50.0142 17.5984 50.0313 17.6594 50.2247 17.6619C50.9121 17.6722 51.5995 17.6619 52.2869 17.6353C52.6231 17.6153 52.9606 17.6372 53.2914 17.7006C53.8929 17.8278 54.0604 18.2617 53.7004 18.7661C53.4991 19.0285 53.2373 19.2384 52.9374 19.3779C52.2594 19.7276 51.5256 19.8771 50.7789 19.9742C50.4109 20.0307 50.0393 20.0594 49.667 20.0601C49.5227 20.0601 49.4857 20.1271 49.4617 20.2431C49.2325 21.3315 49.0014 22.4222 48.7682 23.5152L46.6467 33.5187C46.6038 33.7215 46.5608 33.9234 46.5204 34.1279C46.4998 34.243 46.4585 34.3126 46.3271 34.2886C46.2914 34.2851 46.2554 34.2851 46.2197 34.2886H21.754C21.4584 34.2886 21.4593 34.2886 21.5229 33.9861C22.7476 28.2188 23.9718 22.4514 25.1954 16.6841C25.4686 15.3975 25.7427 14.1115 26.0177 12.826C26.0415 12.7516 26.0366 12.671 26.0039 12.6C25.6387 11.8774 25.5227 11.0929 25.4463 10.3007C25.2512 8.28657 25.7195 6.36269 26.2686 4.45342C26.4275 3.9035 27.0256 3.56495 27.6777 3.63885C27.9175 3.66548 27.9862 3.60018 28.0309 3.37333C28.2483 2.28723 28.4863 1.20543 28.7183 0.121903C28.7262 0.0943883 28.7365 0.0676432 28.7492 0.0419922ZM37.2559 17.8286C37.3199 17.8217 37.3844 17.8217 37.4484 17.8286C38.2337 18.0074 38.6359 17.5434 38.9538 16.9376C38.9899 16.868 39.0268 16.7975 39.0578 16.7262C39.2786 16.2235 39.2777 16.2227 38.8713 15.8669C38.8445 15.8418 38.8158 15.8188 38.7854 15.7982C38.6075 15.6899 38.6084 15.5739 38.7175 15.3969C39.0555 14.847 39.5496 14.4101 40.1367 14.1419C40.7238 13.8737 41.3775 13.7862 42.0145 13.8907C42.2324 13.9202 42.4379 14.0094 42.6082 14.1484C43.1667 14.5961 43.7442 15.018 44.3336 15.4253C44.8758 15.8102 45.4418 16.1607 46.0281 16.4744C46.2455 16.5879 46.2575 16.5827 46.2377 16.349C46.1999 15.9073 46.1561 15.466 46.1063 15.0249C45.9954 14.0333 45.6955 13.1199 45.0614 12.3234C44.6068 11.7528 44.1746 11.1642 43.7106 10.6006C43.6655 10.552 43.632 10.4938 43.6128 10.4304C43.5936 10.3669 43.5891 10.2999 43.5998 10.2345C43.7029 9.42165 43.7046 9.4165 43.1977 8.77377C42.0806 7.35771 40.7539 6.14444 39.398 4.96382C39.3182 4.9033 39.2251 4.86265 39.1265 4.84524C38.1891 4.61461 37.2301 4.483 36.2652 4.45256C35.7049 4.42679 35.1859 4.48865 34.7262 4.83236C34.3507 5.11333 33.9529 5.15973 33.4812 5.08154C31.9586 4.82806 30.4282 4.62012 28.8996 4.40359C28.4545 4.34086 28.0137 4.23173 27.5592 4.25407C27.1682 4.27212 26.9508 4.40788 26.852 4.7301C26.3648 6.32145 25.9927 7.936 26.0469 9.61584C26.0751 11.1661 26.5883 12.6686 27.5145 13.9121C28.5456 15.3024 29.941 16.1943 31.5367 16.7984C33.3763 17.4927 35.2994 17.741 37.2516 17.8252L37.2559 17.8286ZM37.084 28.3743C36.9938 28.4336 36.9345 28.4731 36.8744 28.5109C36.1294 28.9784 35.3853 29.4475 34.636 29.9081C34.4848 30.0009 34.4779 30.049 34.6188 30.1659C35.8218 31.1583 37.0196 32.1585 38.22 33.1552C38.2501 33.181 38.2776 33.2248 38.3411 33.1947C38.354 32.9731 38.3798 32.7454 38.3764 32.5177C38.3759 32.2606 38.4301 32.0064 38.5353 31.7718C38.8696 30.9744 39.1892 30.171 39.5175 29.371C39.5595 29.273 39.5786 29.1666 39.5733 29.06C39.5441 28.352 39.5166 27.6439 39.4951 26.9359C39.4915 26.8078 39.4526 26.6832 39.3826 26.5759C38.623 25.3471 37.8685 24.1158 37.1064 22.8879C37.0726 22.8391 37.0506 22.7831 37.0423 22.7244C37.0339 22.6656 37.0394 22.6057 37.0583 22.5494C37.1854 22.1103 37.3006 21.6678 37.4269 21.2279C37.4745 21.0557 37.4891 20.8761 37.4699 20.6986C37.4252 20.2139 37.3839 19.7293 37.3504 19.2438C37.341 19.0823 37.2954 19.029 37.1244 19.0282C35.9864 19.029 34.8512 18.9164 33.7355 18.6922C30.8304 18.0907 28.4889 16.6368 26.8185 14.1562C26.785 14.1072 26.7687 14.0367 26.6793 14.017C26.6698 14.0574 26.6595 14.0969 26.6509 14.1364C25.9097 17.6525 25.1687 21.1691 24.428 24.6864C24.3352 25.1255 24.3352 25.1306 24.7769 25.177C25.0622 25.2071 25.3337 25.2982 25.6362 25.1882C27.1012 24.6615 28.5757 24.1614 30.045 23.6415C30.1179 23.608 30.1987 23.5955 30.2782 23.6056C30.3578 23.6156 30.433 23.6477 30.4953 23.6982C32.4458 25.0902 34.4003 26.4771 36.3588 27.8588L37.084 28.3743ZM30.2151 24.4587C30.2151 25.5104 30.2151 26.5475 30.2151 27.5855C30.217 27.7626 30.1822 27.9381 30.1129 28.1011C29.5458 29.451 28.9855 30.8043 28.4167 32.1542C28.3844 32.2167 28.3688 32.2865 28.3716 32.3569C28.3743 32.4272 28.3952 32.4956 28.4322 32.5555C28.5525 32.7668 28.659 32.9851 28.7578 33.2076C28.776 33.2639 28.813 33.3122 28.8626 33.3444C28.9122 33.3767 28.9714 33.3909 29.0302 33.3846C30.3982 33.3769 31.7652 33.3846 33.1323 33.3786C33.1916 33.3786 33.2595 33.4061 33.3231 33.3365C33.1976 33.0787 33.0765 32.8115 32.9407 32.5537C32.8711 32.4297 32.8503 32.2842 32.8823 32.1456C33.2174 30.5078 33.5439 28.8675 33.8842 27.2306C33.9185 27.0682 33.8842 26.9875 33.7553 26.8972C32.6337 26.1165 31.5141 25.3328 30.3964 24.5463C30.3471 24.4938 30.2801 24.4614 30.2083 24.4552L30.2151 24.4587ZM49.1317 19.5145C49.2889 19.5145 49.4462 19.5197 49.6034 19.5145C50.5426 19.4767 51.4697 19.3607 52.3634 19.0514C52.6383 18.9693 52.8918 18.8276 53.1058 18.6363C53.2072 18.5392 53.2991 18.425 53.2398 18.278C53.1874 18.1474 53.0456 18.138 52.927 18.1371C52.6409 18.1371 52.3531 18.1294 52.0678 18.1552C50.8609 18.2704 49.6433 18.18 48.4666 17.8879C46.3735 17.3681 44.508 16.3808 42.7826 15.1125C42.5588 14.9376 42.2914 14.8274 42.0093 14.7937C41.2042 14.7078 40.5048 14.8943 39.984 15.5611C39.8878 15.6839 39.8852 15.7621 40.0115 15.8738C40.6757 16.4625 41.3915 16.9902 42.1502 17.4506C44.2898 18.7549 46.5969 19.5128 49.1248 19.5111L49.1317 19.5145ZM42.7268 18.5848C42.7491 18.7343 42.7698 18.8426 42.7809 18.9586C42.8162 19.328 42.9373 19.6872 42.9004 20.0636C42.7869 21.2175 42.5412 22.3518 42.39 23.5006C42.2731 24.3951 42.1537 25.2904 42.2018 26.1944C42.2405 26.9247 42.4776 27.5829 43.0971 28.0169C43.6814 28.4259 44.3233 28.5505 44.9978 28.2025C45.0503 28.1803 45.0943 28.1421 45.1237 28.0933C45.153 28.0445 45.1661 27.9876 45.1611 27.9309C45.1584 27.6879 45.1345 27.4455 45.0898 27.2066C45.0597 27.0553 45.0107 27.0158 44.8474 27.045C44.2408 27.1542 43.8241 26.7177 43.9426 26.1153C44.0466 25.586 44.2571 25.0928 44.4582 24.597C44.9471 23.4069 45.528 22.2572 46.0358 21.0741C46.1655 20.7408 46.2451 20.3901 46.2721 20.0335C46.2858 19.9166 46.2721 19.8565 46.126 19.8376C45.8856 19.8025 45.6474 19.7531 45.4128 19.6898C44.4722 19.443 43.5688 19.0713 42.7268 18.5848Z" fill="#F0BD2D"/>
<path d="M37.6451 44.2189C37.8969 44.2594 38.1437 44.3262 38.3815 44.4183C39.1617 44.7439 39.5776 45.348 39.6154 46.172C39.6858 47.6938 38.9529 48.8117 37.7431 49.6494C36.9655 50.185 36.0424 50.4693 35.0983 50.464C33.8463 50.4735 32.5935 50.464 31.3407 50.464C31.0056 50.464 30.93 50.3695 30.997 50.0447C31.7549 46.3722 32.513 42.6998 33.2715 39.0273C33.3488 38.6501 33.4433 38.5762 33.8214 38.5762C34.63 38.5762 35.4385 38.5762 36.2479 38.5762C36.9964 38.5762 37.7345 38.6621 38.427 38.9671C39.178 39.2979 39.7417 39.8169 39.8225 40.6728C39.9376 41.8938 39.526 42.9206 38.5422 43.6905C38.262 43.8969 37.9614 44.074 37.6451 44.2189ZM34.3309 49.0763V49.0634C34.5956 49.0634 34.8602 49.0746 35.124 49.0634C36.3949 49.0024 37.2284 48.2695 37.4578 47.0201C37.6434 46.0045 37.1502 45.3016 36.1371 45.1486C35.5047 45.055 34.8663 45.1263 34.2313 45.104C34.1264 45.104 34.1204 45.1624 34.1058 45.2346C34.0354 45.5843 33.9623 45.934 33.8893 46.2829C33.7106 47.1421 33.5353 48.0014 33.3505 48.8606C33.3127 49.0325 33.3454 49.0969 33.5378 49.084C33.8008 49.0634 34.0663 49.0763 34.3309 49.0763ZM35.0441 43.7137C35.3154 43.73 35.5876 43.7145 35.8553 43.6673C36.8425 43.4413 37.5961 42.5623 37.6941 41.5191C37.7723 40.6899 37.4071 40.1967 36.5951 40.03C36.2351 39.9561 35.8699 39.9768 35.5073 39.9536C35.2581 39.9372 35.1739 40.0128 35.1266 40.2612C34.9195 41.3542 34.6901 42.4428 34.4564 43.5315C34.4194 43.7034 34.471 43.7231 34.6154 43.7137C34.7597 43.7042 34.9006 43.7137 35.0441 43.7137Z" fill="white"/>
<path d="M47.6477 42.9439C47.7603 42.6646 47.8642 42.4283 47.9502 42.1903C47.9744 42.0962 48.0316 42.014 48.1114 41.9586C48.1913 41.9032 48.2884 41.8784 48.385 41.8887C48.7501 41.8964 49.1153 41.8887 49.4805 41.8887C49.7512 41.8887 49.8302 41.9892 49.7787 42.2479C49.3777 44.2293 48.9767 46.2111 48.5757 48.1931C48.535 48.3529 48.521 48.5184 48.5345 48.6829C48.5714 48.9578 48.6634 49.0549 48.9383 49.091C49.1102 49.1133 49.1824 49.2079 49.1531 49.3694C49.1042 49.6435 49.0474 49.9168 48.9813 50.1874C48.9671 50.2701 48.9232 50.3447 48.8579 50.3972C48.7925 50.4498 48.7102 50.4766 48.6264 50.4727C48.2826 50.4887 47.9382 50.4551 47.6039 50.373C47.0755 50.2338 46.7867 49.8927 46.7197 49.3419C46.712 49.2792 46.7094 49.2156 46.7034 49.1417C46.6106 49.164 46.5779 49.2414 46.5315 49.2946C45.4661 50.4581 44.1462 50.8705 42.6082 50.6033C41.5719 50.4229 40.9275 49.7758 40.6955 48.7421C40.497 47.8614 40.6035 46.9918 40.7814 46.1248C40.991 45.0937 41.3442 44.1219 41.9843 43.2644C43.0902 41.7701 44.8706 41.4531 46.2248 41.7925C46.8512 41.9549 47.3135 42.3347 47.6477 42.9439ZM42.5781 47.7085C42.5783 47.9023 42.5949 48.0957 42.6279 48.2867C42.7216 48.8573 43.0361 49.1735 43.6066 49.2689C44.7237 49.4562 45.7926 48.9707 46.3485 47.9688C46.8999 46.9599 47.1688 45.8209 47.127 44.6718C47.1072 43.859 46.7214 43.3546 46.0375 43.1544C45.6361 43.0443 45.2148 43.0281 44.8062 43.1071C44.0827 43.2291 43.6608 43.7138 43.3652 44.3307C42.8531 45.3979 42.6709 46.5433 42.5781 47.7085Z" fill="white"/>
<path d="M64.2185 38.6492C63.9808 39.8063 63.7425 40.9611 63.5036 42.1137C63.2665 43.2677 63.0302 44.4217 62.7913 45.5834C62.903 45.5765 62.9391 45.4975 62.9915 45.4459C64.0647 44.383 65.1397 43.3218 66.2051 42.2512C66.3136 42.1328 66.4469 42.0398 66.5954 41.9788C66.7439 41.9177 66.904 41.8902 67.0644 41.898C67.4571 41.9126 67.8515 41.898 68.245 41.9058C68.3309 41.9058 68.4392 41.8826 68.477 41.9685C68.5148 42.0544 68.41 42.1146 68.3507 42.1696C67.0332 43.4097 65.7116 44.6477 64.3861 45.8833C64.2469 46.013 64.2469 46.0938 64.3457 46.2467C65.1672 47.5193 65.9783 48.7987 66.7955 50.0756C66.8341 50.1357 66.8728 50.1967 66.9063 50.2586C66.9768 50.3875 66.9381 50.4777 66.792 50.4786C66.1691 50.4786 65.5461 50.4846 64.924 50.4708C64.7375 50.4708 64.6301 50.3188 64.539 50.1632C63.9209 49.1012 63.3006 48.0414 62.6779 46.984C62.6401 46.9195 62.622 46.837 62.5267 46.7924C62.3497 47.6516 62.1752 48.4997 61.9991 49.3495C61.9441 49.6159 61.8917 49.8822 61.8315 50.1469C61.7714 50.4116 61.6708 50.4829 61.4139 50.4846C61.0135 50.4846 60.6122 50.4846 60.211 50.4846C59.8535 50.4846 59.7865 50.4055 59.8578 50.0627C60.0778 48.9998 60.3012 47.9369 60.5211 46.8731C61.0035 44.5526 61.4821 42.2354 61.957 39.9217C61.9644 39.8628 61.987 39.8068 62.0226 39.7592C62.0581 39.7117 62.1054 39.6741 62.1598 39.6502C62.7741 39.346 63.3833 39.0315 63.9951 38.7231C64.0602 38.676 64.1382 38.6502 64.2185 38.6492Z" fill="white"/>
<path d="M53.6333 43.2755C53.9313 42.8766 54.2751 42.5141 54.6576 42.1954C55.5607 41.4564 57.3909 41.5716 58.2398 42.3475C58.9272 42.9773 59.1137 43.7842 58.965 44.6589C58.7717 45.7923 58.5148 46.9145 58.2905 48.0427C58.2415 48.2875 58.1951 48.5359 58.263 48.7868C58.3103 48.9629 58.3859 49.1047 58.6067 49.103C58.7923 49.103 58.8645 49.2164 58.8336 49.3874C58.7846 49.6606 58.7296 49.9347 58.666 50.2054C58.6514 50.2848 58.6085 50.3562 58.5453 50.4064C58.4822 50.4566 58.4029 50.4823 58.3223 50.4787C57.9787 50.4975 57.6343 50.4624 57.3015 50.3747C56.5282 50.1573 56.1467 49.6014 56.1845 48.7421C56.2094 48.1587 56.3804 47.6019 56.4826 47.033C56.6218 46.2597 56.8547 45.5036 56.8977 44.713C56.9075 44.5562 56.9075 44.399 56.8977 44.2422C56.8375 43.3743 56.2962 42.9602 55.4447 43.1045C55.1787 43.1475 54.9248 43.2463 54.6997 43.3944C54.4746 43.5425 54.2834 43.7365 54.1386 43.9638C53.7554 44.5257 53.593 45.1667 53.4572 45.8215C53.161 47.2478 52.8623 48.6742 52.561 50.1006C52.4974 50.4013 52.3952 50.4795 52.0875 50.4804C51.6725 50.4804 51.2566 50.4804 50.8416 50.4804C50.5778 50.4804 50.4979 50.3721 50.5477 50.1126C50.9487 48.1529 51.3514 46.1932 51.7559 44.2336C51.8005 44.017 51.8538 43.8039 51.7885 43.5771C51.737 43.4052 51.6442 43.2935 51.4448 43.2772C51.2051 43.2574 51.1535 43.1741 51.2016 42.9335C51.2498 42.6929 51.2979 42.4566 51.3477 42.2195C51.3586 42.1291 51.4027 42.0461 51.4715 41.9865C51.5403 41.9269 51.6288 41.8951 51.7198 41.8972C52.0707 41.8748 52.4229 41.909 52.7629 41.9986C53.3292 42.1628 53.5655 42.4523 53.6222 43.0383C53.6222 43.1002 53.6222 43.1621 53.6333 43.2755Z" fill="white"/>
<path d="M3.44922 43.6914H4.7467C5.39114 43.6914 6.03558 43.6914 6.68003 43.6914C6.99022 43.6914 7.06497 43.7824 7.00397 44.0866C6.95585 44.3246 6.90429 44.5618 6.85102 44.7989C6.78314 45.098 6.67917 45.1805 6.35351 45.1805C5.36536 45.1805 4.37721 45.1805 3.38993 45.1736C3.20175 45.1736 3.12356 45.2097 3.08317 45.4133C2.78415 46.9273 2.46622 48.437 2.15603 49.9493C2.07011 50.379 2.00137 50.4374 1.55455 50.4374C1.1464 50.4374 0.738257 50.4374 0.330969 50.4374C0.0353842 50.4374 -0.0410902 50.342 0.0190579 50.0516C0.379946 48.3021 0.741694 46.5533 1.1043 44.805C1.49956 42.8945 1.89367 40.9844 2.28664 39.0746C2.38288 38.6071 2.44732 38.5504 2.93022 38.5513L8.5154 38.5616C8.9141 38.5616 8.97425 38.6346 8.89262 39.0153C8.8445 39.2387 8.79896 39.463 8.74568 39.6855C8.67952 39.963 8.58156 40.0404 8.29629 40.0404C7.0074 40.0404 5.71852 40.0404 4.42963 40.0404C4.25778 40.0404 4.1856 40.0722 4.14951 40.2552C3.9261 41.3937 3.68723 42.5331 3.44922 43.6914Z" fill="white"/>
<path d="M20.3518 50.6532C19.6717 50.6469 18.9971 50.5308 18.354 50.3095C18.1273 50.239 17.921 50.1149 17.7525 49.9477C17.5806 49.7682 17.5806 49.604 17.731 49.4116C17.829 49.2887 17.9381 49.1753 18.0429 49.0567C18.3007 48.762 18.3437 48.7517 18.7303 48.8848C19.2665 49.0653 19.8061 49.2285 20.3758 49.2569C20.8802 49.2835 21.376 49.2638 21.852 49.0696C22.0394 48.9961 22.2056 48.8771 22.3355 48.7233C22.4654 48.5696 22.555 48.3859 22.5961 48.1888C22.676 47.8787 22.5858 47.6647 22.3134 47.4928C22.0235 47.3227 21.7135 47.1893 21.3906 47.0959C21.0246 46.9773 20.6594 46.8493 20.2873 46.7522C18.9555 46.3973 18.635 45.3928 18.8953 44.2491C19.2055 42.8872 20.283 41.9292 21.7154 41.7246C22.7353 41.5812 23.7424 41.6387 24.703 42.0623C24.896 42.1386 25.0743 42.2479 25.2298 42.3854C25.3896 42.5384 25.4016 42.6655 25.2641 42.8348C25.0923 43.0393 24.9136 43.2318 24.7426 43.4363C24.6566 43.5368 24.563 43.5299 24.453 43.4982C24.0345 43.3787 23.635 43.1957 23.2045 43.1175C22.7139 43.0316 22.2224 43.0015 21.7377 43.1407C21.5288 43.1959 21.3375 43.3039 21.1823 43.4544C21.0272 43.6049 20.9134 43.7928 20.8518 44C20.6972 44.4597 20.8664 44.7879 21.3287 44.9331C21.901 45.1127 22.4758 45.2828 23.0472 45.4573C23.3361 45.5375 23.614 45.6529 23.8747 45.801C24.3576 46.0888 24.5965 46.521 24.6248 47.0735C24.7013 48.5566 23.9031 49.7329 22.432 50.3104C21.8005 50.5578 21.1423 50.6558 20.3518 50.6532Z" fill="white"/>
<path d="M27.5333 43.1768C27.2712 43.1768 27.0066 43.1768 26.7428 43.1768C26.4369 43.1768 26.369 43.0969 26.4275 42.8039C26.4696 42.5934 26.5134 42.3837 26.5641 42.1758C26.5784 42.0897 26.624 42.0119 26.6922 41.9575C26.7605 41.9031 26.8464 41.8758 26.9336 41.881C27.1699 41.881 27.407 41.8673 27.6424 41.881C27.8005 41.8922 27.8487 41.8321 27.8736 41.686C27.9389 41.2993 28.0231 40.9127 28.097 40.5286C28.1107 40.4581 28.1168 40.3937 28.1949 40.3567C28.9021 40.001 29.6084 39.6418 30.3354 39.2732C30.3543 39.5043 30.2795 39.6977 30.2426 39.8936C30.13 40.4951 30.0071 41.0854 29.8799 41.68C29.8464 41.8355 29.8696 41.8948 30.0475 41.8853C30.3397 41.8707 30.6344 41.8785 30.9274 41.8853C31.1645 41.8896 31.2384 41.9756 31.1963 42.2101C31.1542 42.4447 31.1035 42.6578 31.0494 42.8795C30.9953 43.1012 30.8578 43.1863 30.6421 43.1845C30.3345 43.1845 30.026 43.1845 29.7184 43.1845C29.6084 43.1845 29.5526 43.2095 29.5285 43.3263C29.2094 44.9245 28.8875 46.5216 28.5627 48.1175C28.5233 48.3006 28.5325 48.4908 28.5893 48.6692C28.6328 48.7916 28.7139 48.897 28.821 48.9704C28.9282 49.0437 29.0559 49.0812 29.1857 49.0773C29.7536 49.0919 29.7588 49.0971 29.6505 49.6565C29.617 49.8283 29.5792 50.0062 29.5388 50.1798C29.527 50.2591 29.4868 50.3315 29.4256 50.3835C29.3645 50.4355 29.2865 50.4635 29.2063 50.4625C28.7492 50.4736 28.2877 50.5037 27.8315 50.4229C26.9379 50.2631 26.4953 49.7355 26.4799 48.8178C26.4696 48.2164 26.6337 47.6432 26.7514 47.0624C27.0092 45.7881 27.2747 44.5147 27.5359 43.2404C27.5379 43.2192 27.537 43.1978 27.5333 43.1768Z" fill="white"/>
<path d="M15.6695 42.8399C15.7527 42.7332 15.8414 42.6308 15.935 42.5331C16.5769 41.9248 17.3614 41.7211 18.2224 41.7375C18.3942 41.7375 18.469 41.7925 18.4226 41.9858C18.3298 42.3673 18.2585 42.754 18.176 43.1381C18.1029 43.4818 17.9904 43.5385 17.6475 43.4964C16.7685 43.389 15.807 43.6914 15.5209 44.9571C15.1393 46.6499 14.7742 48.3469 14.4038 50.0422C14.3179 50.4469 14.2423 50.5088 13.823 50.5079C13.444 50.5079 13.0642 50.5079 12.6853 50.5079C12.3889 50.5079 12.3158 50.4125 12.3785 50.1204C12.8007 48.1578 13.2235 46.1959 13.6468 44.2345C13.6922 44.0614 13.7147 43.8832 13.7138 43.7043C13.7001 43.419 13.597 43.3005 13.3108 43.2541C13.139 43.2266 13.0582 43.1303 13.0917 42.955C13.1407 42.6973 13.1897 42.4395 13.2481 42.1817C13.2601 42.095 13.3036 42.0157 13.3703 41.9589C13.4371 41.9022 13.5223 41.872 13.6099 41.8741C14.0532 41.8672 14.4975 41.8741 14.928 42.0056C15.3284 42.1276 15.5741 42.3854 15.6085 42.8201L15.6695 42.8399Z" fill="white"/>
<path d="M8.15287 49.0068C8.17092 48.3941 8.34793 47.8089 8.4751 47.2161C8.82481 45.5835 9.18398 43.9509 9.54058 42.3183C9.60588 42.0184 9.71243 41.9368 10.0132 41.9351C10.4142 41.9351 10.8151 41.9351 11.2161 41.9351C11.5177 41.9351 11.5908 42.021 11.528 42.3123C11.1059 44.2679 10.6822 46.223 10.2572 48.1776C10.199 48.4143 10.1779 48.6587 10.1945 48.9019C10.2202 49.176 10.3173 49.28 10.582 49.3195C10.7401 49.3436 10.8131 49.4372 10.7865 49.5876C10.7367 49.8694 10.68 50.1496 10.6146 50.4271C10.5984 50.5013 10.5568 50.5676 10.4971 50.6146C10.4374 50.6616 10.3632 50.6865 10.2873 50.6849C9.85764 50.6986 9.42801 50.6643 9.02416 50.4933C8.42526 50.2441 8.13741 49.7406 8.15287 49.0068Z" fill="white"/>
<path d="M38.1717 55.7195C38.897 56.1311 38.9605 56.9569 38.3436 57.5523C37.8933 57.9905 36.9103 58.1315 36.3518 57.8393C36.2216 57.7766 36.112 57.6781 36.0359 57.5553C35.9598 57.4324 35.9203 57.2904 35.9222 57.1459C35.9053 56.8979 35.9584 56.6501 36.0756 56.4309C36.1927 56.2117 36.3691 56.0298 36.5847 55.906C36.6921 55.839 36.8098 55.7883 36.9215 55.7341C36.9215 55.7178 36.9215 55.698 36.9146 55.6946C36.3037 55.3784 36.4395 54.7984 36.7591 54.3439C36.9207 54.1307 37.1522 53.9814 37.413 53.922C37.7047 53.845 38.0099 53.8332 38.3066 53.8876C38.5919 53.9349 38.8531 54.0534 38.9416 54.3593C38.9957 54.5223 39.007 54.6964 38.9747 54.865C38.9423 55.0336 38.8674 55.1911 38.7569 55.3226C38.6048 55.5013 38.4037 55.6087 38.1717 55.7195ZM36.6543 56.9311C36.6479 57.0536 36.6872 57.174 36.7645 57.2693C36.8417 57.3645 36.9516 57.4277 37.0727 57.4466C37.6407 57.5687 38.1898 56.9878 38.048 56.4155C38.0252 56.3024 37.964 56.2006 37.8747 56.1275C37.7854 56.0544 37.6736 56.0144 37.5582 56.0143C37.0745 55.9936 36.6526 56.4198 36.6543 56.9311ZM37.8426 54.3808C37.7605 54.3802 37.6791 54.3959 37.6031 54.4268C37.527 54.4577 37.4578 54.5033 37.3994 54.561C37.3409 54.6187 37.2945 54.6874 37.2626 54.7631C37.2307 54.8387 37.2141 54.9199 37.2137 55.002C37.2102 55.0591 37.2181 55.1163 37.237 55.1702C37.2559 55.2242 37.2854 55.2738 37.3238 55.3162C37.3621 55.3587 37.4085 55.393 37.4603 55.4172C37.512 55.4415 37.5681 55.4552 37.6252 55.4575C37.9389 55.4626 38.2697 55.1138 38.2766 54.7778C38.2809 54.5423 38.1056 54.3825 37.8426 54.3808Z" fill="white"/>
<path d="M42.1459 54.6608C42.1282 54.4695 42.048 54.2894 41.9177 54.1482C41.7874 54.007 41.6143 53.9127 41.425 53.8797C41.156 53.8316 40.8791 53.8532 40.6207 53.9425C39.8801 54.2097 39.6111 54.8129 39.5415 55.5252C39.4685 56.2917 39.9136 56.6869 40.6817 56.5976C40.9722 56.5632 41.1724 56.4008 41.3786 56.2109C41.3584 56.461 41.2792 56.7028 41.1475 56.9164C40.9249 57.3185 40.5924 57.523 40.1215 57.4439C39.9655 57.4261 39.8116 57.3933 39.6618 57.346C39.404 57.2489 39.398 57.4766 39.325 57.5943C39.2339 57.7412 39.3929 57.773 39.4771 57.8143C40.1877 58.1674 40.9679 58.0153 41.4534 57.3709C42.0617 56.5744 42.2748 55.6507 42.1459 54.6608ZM41.5307 55.0415C41.4993 55.2832 41.4214 55.5167 41.3013 55.7289C41.1655 55.9514 40.979 56.0855 40.7049 56.0726C40.3612 56.064 40.2109 55.9102 40.2186 55.5166C40.2345 55.2832 40.2951 55.0551 40.3973 54.8447C40.4615 54.7 40.5682 54.5784 40.7032 54.4958C40.9034 54.3798 41.1243 54.3171 41.3313 54.4494C41.5384 54.5818 41.5694 54.8095 41.5307 55.0415Z" fill="white"/>
<path d="M44.0845 56.9687H42.5636C42.353 56.9687 42.3127 56.9026 42.4089 56.711C42.4471 56.6428 42.4939 56.5799 42.5481 56.5236C43.2432 55.7262 43.9495 54.9383 44.6309 54.1297C44.8311 53.8917 45.0606 53.9166 45.3089 53.9295C45.449 53.9364 45.3948 54.0524 45.3785 54.128C45.2571 54.7226 45.1345 55.3167 45.0107 55.9101C44.9896 56.0443 44.961 56.1771 44.9248 56.308C44.8758 56.4592 44.9429 56.4678 45.0666 56.4747C45.1637 56.4798 45.3364 56.3887 45.3321 56.6035C45.3261 56.8957 45.2625 56.9885 45.0442 56.9653C44.826 56.9421 44.7495 57.0289 44.7358 57.2231C44.7259 57.2937 44.7118 57.3637 44.6937 57.4327C44.5863 57.9586 44.5863 57.9543 44.0492 57.9251C43.916 57.9174 43.892 57.8641 43.916 57.7532C43.9719 57.5015 44.0243 57.2497 44.0845 56.9687ZM44.4866 55.0062L43.2621 56.4669C43.5732 56.4669 43.8267 56.4669 44.0802 56.4669C44.096 56.4691 44.112 56.4679 44.1274 56.4636C44.1427 56.4592 44.157 56.4517 44.1693 56.4415C44.1815 56.4313 44.1916 56.4187 44.1987 56.4044C44.2059 56.3902 44.21 56.3746 44.2108 56.3587C44.2967 55.929 44.3852 55.4977 44.4857 55.0053L44.4866 55.0062Z" fill="white"/>
<path d="M19.5741 57.9721C19.246 57.9716 18.9212 57.9074 18.6177 57.7831C18.5421 57.7504 18.3934 57.7306 18.4613 57.6112C18.5292 57.4918 18.5412 57.2598 18.7836 57.3173C19.1154 57.4054 19.4577 57.4476 19.8009 57.4428C19.9814 57.4386 20.1581 57.3911 20.3165 57.3045C20.716 57.081 20.7306 56.6549 20.3354 56.422C20.1409 56.3187 19.94 56.228 19.7339 56.1505C18.8858 55.7853 18.7286 54.9578 19.4014 54.3168C19.9427 53.8013 20.5949 53.7574 21.2849 53.9344C21.3467 53.9508 21.4069 53.9731 21.4679 53.9937C21.7953 54.1063 21.8013 54.1304 21.6225 54.4131C21.6133 54.4338 21.6 54.4525 21.5834 54.468C21.5669 54.4836 21.5474 54.4957 21.5262 54.5037C21.5049 54.5117 21.4823 54.5154 21.4596 54.5145C21.4369 54.5137 21.4146 54.5085 21.394 54.499C21.0586 54.3945 20.7061 54.3559 20.356 54.3856C20.2373 54.3929 20.122 54.4284 20.0197 54.4891C19.9173 54.5497 19.8309 54.6338 19.7674 54.7344C19.5956 55.0137 19.6591 55.2672 19.9521 55.4106C20.1506 55.5077 20.3603 55.5825 20.5631 55.6684C21.4378 56.0396 21.5615 57.0157 20.8105 57.6018C20.4978 57.8423 20.0845 57.9695 19.5741 57.9721Z" fill="white"/>
<path d="M24.6444 55.4632C24.8446 55.2476 25.0122 55.0439 25.2914 54.9821C26.0484 54.8154 26.5708 55.3206 26.4162 56.0785C26.344 56.4351 26.2675 56.7908 26.1988 57.1483C26.1747 57.2754 26.1601 57.3897 26.3311 57.4602C26.4652 57.5152 26.3492 57.6483 26.3449 57.7463C26.3465 57.7677 26.3437 57.7892 26.3367 57.8094C26.3296 57.8296 26.3184 57.8482 26.3038 57.8638C26.2891 57.8795 26.2714 57.892 26.2517 57.9004C26.232 57.9089 26.2108 57.9132 26.1893 57.913C25.7202 57.9663 25.4263 57.6647 25.5088 57.1972C25.5707 56.8458 25.6463 56.4969 25.715 56.1464C25.7276 56.0898 25.7353 56.0323 25.7382 55.9745C25.7442 55.7709 25.7382 55.5646 25.5226 55.4589C25.337 55.367 25.0457 55.4452 24.879 55.6308C24.7123 55.8164 24.6358 56.0604 24.5842 56.3096C24.4846 56.7848 24.3815 57.2591 24.2878 57.736C24.2869 57.7624 24.2804 57.7883 24.2688 57.812C24.2572 57.8357 24.2407 57.8567 24.2204 57.8737C24.2002 57.8906 24.1766 57.9031 24.1512 57.9103C24.1258 57.9175 24.0991 57.9193 24.073 57.9156C23.5703 57.9276 23.5712 57.9319 23.6726 57.4395C23.7843 56.8936 23.8951 56.348 24.0051 55.8027C24.0317 55.6695 24.0695 55.5285 23.8728 55.4787C23.7868 55.4564 23.8058 55.3747 23.8281 55.318C23.8676 55.2192 23.8186 55.0757 23.9699 55.0328C24.0426 55.0098 24.1195 55.003 24.1952 55.013C24.2708 55.0229 24.3434 55.0494 24.4077 55.0904C24.472 55.1315 24.5266 55.1861 24.5675 55.2505C24.6084 55.315 24.6346 55.3876 24.6444 55.4632Z" fill="white"/>
<path d="M31.0846 56.7059C30.899 56.7059 30.7117 56.7154 30.527 56.7059C30.3895 56.6973 30.3551 56.7558 30.3551 56.8778C30.3371 57.3297 30.5811 57.5695 31.0288 57.5145C31.2129 57.4913 31.3942 57.4499 31.5701 57.3908C31.7067 57.3452 31.7574 57.3908 31.8116 57.5068C31.8657 57.6228 31.8416 57.7121 31.7256 57.7706C31.3725 57.9499 30.9747 58.0221 30.5811 57.9785C29.9152 57.9132 29.6136 57.5274 29.6763 56.8572C29.7033 56.493 29.7992 56.1372 29.959 55.8089C30.2881 55.1532 30.9042 54.8508 31.6105 54.9926C32.0212 55.0785 32.2635 55.3474 32.2842 55.7659C32.2911 55.8945 32.2824 56.0235 32.2584 56.15C32.1725 56.5641 32.0006 56.7042 31.5787 56.7128C31.4146 56.7128 31.2496 56.7128 31.0855 56.7128L31.0846 56.7059ZM30.4685 56.2359H31.3854C31.4205 56.2401 31.4561 56.2342 31.488 56.219C31.5199 56.2038 31.5469 56.1799 31.5658 56.15C31.6586 55.991 31.6148 55.6576 31.4799 55.527C31.345 55.3964 31.1439 55.3861 30.9446 55.4995C30.6653 55.6568 30.5631 55.9377 30.4685 56.2359Z" fill="white"/>
<path d="M11.2925 38.6666C11.5211 38.6666 11.7497 38.6614 11.9799 38.6666C12.1879 38.6726 12.2695 38.768 12.23 38.9673C12.1406 39.4153 12.0461 39.8615 11.9464 40.3061C11.894 40.5355 11.7746 40.6291 11.534 40.6309C11.1044 40.6309 10.6747 40.6309 10.2451 40.6309C9.97701 40.6266 9.90139 40.5243 9.95896 40.2631C10.0449 39.8446 10.1377 39.4262 10.2313 39.0094C10.2872 38.7603 10.398 38.6718 10.6481 38.6657C10.862 38.6657 11.0777 38.6657 11.2908 38.6657L11.2925 38.6666Z" fill="white"/>
<path d="M34.7709 54.7492C34.5389 54.8454 34.3309 54.9322 34.1213 55.0155C34.0697 55.0362 33.995 55.0723 33.9632 55.0516C33.9013 55.0121 33.9503 54.9339 33.9537 54.872C33.9666 54.6486 34.0809 54.5189 34.2974 54.4373C34.691 54.286 35.0707 54.1065 35.46 53.9406C35.5167 53.9157 35.5794 53.8547 35.6318 53.8908C35.6843 53.9269 35.6396 54.0102 35.6318 54.0686C35.3852 55.2802 35.1343 56.4909 34.8903 57.7024C34.8576 57.8648 34.7855 57.9233 34.6162 57.9207C34.1273 57.9138 34.1307 57.9207 34.2312 57.4438C34.41 56.5983 34.5835 55.7511 34.7588 54.9047C34.7648 54.8643 34.764 54.8205 34.7709 54.7492Z" fill="white"/>
<path d="M26.9774 56.9449C26.9862 56.5501 27.0806 56.162 27.254 55.8072C27.6123 55.0597 28.5678 54.7237 29.2974 55.0915C29.3902 55.1387 29.5629 55.1628 29.5019 55.3338C29.4323 55.5245 29.263 55.6062 29.0963 55.5271C28.439 55.2178 27.9741 55.607 27.7979 56.1552C27.7033 56.4255 27.6601 56.7111 27.6708 56.9973C27.6931 57.353 27.9139 57.5421 28.2723 57.5129C28.4423 57.4904 28.609 57.4477 28.7689 57.3857C28.8548 57.3573 28.9322 57.3298 28.976 57.4493C29.0121 57.5481 29.0817 57.634 28.964 57.7346C28.6022 58.043 27.6691 58.0671 27.297 57.7698C27.0255 57.5584 26.9705 57.2628 26.9774 56.9449Z" fill="white"/>
<path d="M21.8821 57.2667C21.9611 56.8723 22.0539 56.4074 22.151 55.9357C22.2009 55.6908 22.2593 55.4476 22.3023 55.2019C22.303 55.1754 22.3092 55.1495 22.3207 55.1256C22.3322 55.1018 22.3485 55.0807 22.3687 55.0636C22.389 55.0466 22.4125 55.034 22.438 55.0268C22.4634 55.0195 22.49 55.0177 22.5162 55.0214C23.024 55.006 23.0215 55.0017 22.9201 55.4914C22.8075 56.0371 22.6958 56.5818 22.5884 57.1283C22.5626 57.2607 22.5377 57.3861 22.7224 57.4574C22.853 57.5073 22.7422 57.6293 22.7379 57.7247C22.7336 57.82 22.7078 57.8896 22.5987 57.9111C22.2129 57.9867 21.8821 57.7264 21.8821 57.2667Z" fill="white"/>
<path d="M22.9243 53.7955C23.0102 53.7955 23.0764 53.7955 23.1399 53.7955C23.2035 53.7955 23.2611 53.823 23.2482 53.8952C23.219 54.0558 23.1829 54.2148 23.1434 54.3729C23.1279 54.4331 23.0729 54.4537 23.0128 54.4648C22.5058 54.5559 22.4474 54.4846 22.5505 53.9871C22.6029 53.7173 22.7971 53.8187 22.9243 53.7955Z" fill="white"/>
<path d="M37.2515 17.8252C35.2993 17.7393 33.3763 17.4927 31.5349 16.7941C29.9392 16.1926 28.5438 15.2982 27.5127 13.9079C26.5865 12.6643 26.0733 11.1619 26.0451 9.61158C25.9944 7.93173 26.363 6.31719 26.8502 4.72584C26.949 4.40362 27.1664 4.26786 27.5574 4.24981C28.0119 4.22747 28.4527 4.33574 28.8978 4.39932C30.4264 4.61586 31.9568 4.8238 33.4794 5.07728C33.9502 5.15547 34.3489 5.10907 34.7244 4.82809C35.1841 4.48439 35.7031 4.42252 36.2634 4.4483C37.2288 4.48093 38.1881 4.61485 39.1256 4.84786C39.2242 4.86526 39.3173 4.90591 39.3971 4.96643C40.753 6.14705 42.0771 7.36033 43.1967 8.77638C43.7037 9.41739 43.702 9.42255 43.5989 10.2371C43.5882 10.3025 43.5927 10.3695 43.6119 10.433C43.6311 10.4964 43.6645 10.5546 43.7097 10.6032C44.1737 11.1668 44.6059 11.7554 45.0604 12.326C45.6946 13.1225 45.9945 14.0359 46.1053 15.0275C46.1551 15.468 46.199 15.9094 46.2368 16.3516C46.2565 16.5853 46.2445 16.5905 46.0271 16.4771C45.4408 16.1633 44.8749 15.8129 44.3327 15.4279C43.7432 15.0206 43.1658 14.5987 42.6073 14.151C42.4369 14.012 42.2314 13.9228 42.0135 13.8933C41.3765 13.7888 40.7229 13.8763 40.1357 14.1445C39.5486 14.4127 39.0546 14.8496 38.7166 15.3995C38.6074 15.5766 38.6066 15.6926 38.7844 15.8008C38.8149 15.8214 38.8436 15.8444 38.8704 15.8696C39.2768 16.2219 39.2776 16.2227 39.0568 16.7288C39.0259 16.8001 38.9889 16.8706 38.9528 16.9402C38.6349 17.5417 38.2328 18.01 37.4474 17.8312C37.3825 17.8221 37.3168 17.8201 37.2515 17.8252ZM39.3344 10.3316L38.1735 9.029C38.0764 8.91988 38.0231 9.029 37.9664 9.0754C37.3787 9.58752 36.7921 10.1014 36.2067 10.6169C36.1568 10.6607 36.0829 10.69 36.0726 10.7845L39.3344 10.3316Z" fill="#162D4C"/>
<path d="M37.0771 28.3709L36.3544 27.8553C34.3987 26.4702 32.4442 25.0842 30.4908 23.6974C30.4286 23.6469 30.3534 23.6148 30.2738 23.6047C30.1942 23.5947 30.1135 23.6072 30.0406 23.6407C28.5713 24.1562 27.0968 24.6572 25.6317 25.1873C25.3267 25.2973 25.0552 25.2063 24.7725 25.1762C24.3308 25.1298 24.3308 25.1246 24.4236 24.6855C25.1626 21.1666 25.9018 17.6488 26.6414 14.1321C26.65 14.0926 26.6603 14.0531 26.6697 14.0127C26.7556 14.0325 26.7754 14.1029 26.8089 14.1519C28.4793 16.6326 30.8208 18.0899 33.7259 18.6879C34.8416 18.9122 35.9769 19.0247 37.1149 19.0239C37.2867 19.0239 37.3314 19.078 37.3408 19.2396C37.3709 19.725 37.4156 20.2097 37.4603 20.6943C37.4795 20.8719 37.465 21.0515 37.4173 21.2236C37.291 21.6635 37.1759 22.106 37.0487 22.5451C37.0298 22.6014 37.0243 22.6613 37.0327 22.7201C37.0411 22.7789 37.063 22.8349 37.0968 22.8837C37.859 24.1116 38.6134 25.3429 39.373 26.5716C39.443 26.679 39.4819 26.8035 39.4855 26.9316C39.507 27.6397 39.5345 28.3477 39.5637 29.0557C39.569 29.1623 39.5499 29.2687 39.5079 29.3668C39.1797 30.1667 38.86 30.9702 38.5258 31.7675C38.4205 32.0021 38.3664 32.2563 38.3668 32.5134C38.3668 32.7411 38.3445 32.9688 38.3316 33.1905C38.268 33.2206 38.2405 33.1767 38.2104 33.1509C37.0075 32.1542 35.8131 31.154 34.6093 30.1616C34.4683 30.0456 34.4752 29.9975 34.6264 29.9038C35.3757 29.4432 36.1198 28.9741 36.8648 28.5067C36.9275 28.4697 36.9868 28.4302 37.0771 28.3709Z" fill="#162D4C"/>
<path d="M30.2081 24.4553C30.2784 24.4625 30.3437 24.4949 30.392 24.5464C31.5119 25.33 32.6315 26.1128 33.7509 26.8948C33.8815 26.985 33.9141 27.0666 33.8797 27.2281C33.536 28.8607 33.213 30.5054 32.8778 32.1431C32.8458 32.2817 32.8667 32.4272 32.9363 32.5513C33.072 32.809 33.1941 33.0745 33.3186 33.334C33.2551 33.4036 33.1872 33.3761 33.1279 33.3761C31.7608 33.3761 30.3937 33.3761 29.0258 33.3822C28.967 33.3884 28.9078 33.3742 28.8582 33.342C28.8086 33.3097 28.7716 33.2614 28.7534 33.2051C28.6546 32.9835 28.548 32.7643 28.4277 32.553C28.3907 32.4931 28.3698 32.4247 28.3671 32.3544C28.3644 32.284 28.38 32.2142 28.4123 32.1517C28.9811 30.8018 29.5413 29.4485 30.1085 28.0986C30.1778 27.9356 30.2126 27.7601 30.2107 27.583C30.2047 26.5442 30.2081 25.5071 30.2081 24.4553Z" fill="#162D4C"/>
<path d="M49.1248 19.5111C46.5969 19.5111 44.2898 18.7549 42.1451 17.4488C41.3864 16.9884 40.6706 16.4607 40.0064 15.8721C39.8801 15.7604 39.8827 15.6822 39.9789 15.5593C40.4996 14.8925 41.1991 14.7069 42.0042 14.792C42.2862 14.8257 42.5537 14.9359 42.7775 15.1108C44.5029 16.3791 46.3683 17.3663 48.4615 17.8862C49.637 18.1764 50.8532 18.2653 52.0584 18.1491C52.3428 18.1234 52.6306 18.1285 52.9176 18.1311C53.0362 18.1311 53.1754 18.1414 53.2304 18.272C53.2897 18.4189 53.1977 18.5298 53.0963 18.6303C52.8824 18.8215 52.6289 18.9632 52.3539 19.0453C51.4603 19.3547 50.5332 19.4707 49.594 19.5085C49.4393 19.5162 49.2821 19.5111 49.1248 19.5111Z" fill="#162D4C"/>
<path d="M42.7267 18.585C43.5695 19.072 44.4738 19.4439 45.4153 19.6908C45.6499 19.7542 45.8881 19.8035 46.1285 19.8386C46.2703 19.8575 46.2883 19.9177 46.2746 20.0345C46.2476 20.3911 46.168 20.7418 46.0383 21.0751C45.5305 22.2566 44.9496 23.4063 44.4607 24.598C44.2571 25.0938 44.0465 25.5871 43.9451 26.1164C43.8266 26.7178 44.2433 27.1552 44.8499 27.0461C45.0132 27.0169 45.0622 27.0564 45.0923 27.2076C45.137 27.4465 45.1609 27.6889 45.1636 27.932C45.1686 27.9887 45.1555 28.0455 45.1262 28.0943C45.0968 28.1431 45.0528 28.1813 45.0003 28.2035C44.3258 28.5515 43.6839 28.4269 43.0996 28.0179C42.4801 27.584 42.2404 26.9258 42.2043 26.1954C42.1562 25.2915 42.2756 24.3961 42.3925 23.5016C42.5437 22.3537 42.7894 21.2194 42.9029 20.0646C42.9398 19.6882 42.8169 19.3291 42.7834 18.9596C42.7697 18.8462 42.7491 18.7319 42.7267 18.585Z" fill="#162D4C"/>
<path d="M39.3344 10.3315L36.0692 10.7844C36.0795 10.6899 36.1551 10.6606 36.2033 10.6168C36.7881 10.1013 37.3747 9.58743 37.963 9.07531C38.0197 9.02633 38.073 8.91978 38.1701 9.02891L39.3344 10.3315Z" fill="#DCAA10"/>
<path d="M77.3718 50.4015L77.0165 48.2237H72.4138L71.2553 50.4015H69.3092L75.1322 39.5896H77.2637L79.2716 50.4015H77.3718ZM73.3096 46.5556H76.7385L75.9354 41.613L73.3096 46.5556Z" fill="white"/>
<path d="M83.9286 50.6023C82.7547 50.6023 81.8331 50.1904 81.1638 49.3667C80.4945 48.5429 80.2577 47.5441 80.4533 46.3702C80.649 45.2375 81.1793 44.3057 82.0442 43.5746C82.9195 42.8435 83.9389 42.4779 85.1024 42.4779C85.885 42.4779 86.5543 42.6581 87.1104 43.0185C87.6767 43.3789 88.0783 43.868 88.3151 44.4858L86.8169 45.2581C86.5183 44.4961 85.8953 44.1152 84.948 44.1152C84.2581 44.1152 83.6454 44.3365 83.11 44.7793C82.5745 45.2221 82.245 45.7936 82.1214 46.4938C82.0082 47.194 82.1369 47.7809 82.5076 48.2546C82.8783 48.7282 83.4086 48.9651 84.0985 48.9651C84.5515 48.9651 84.9686 48.8569 85.3496 48.6407C85.7409 48.4245 86.0601 48.131 86.3072 47.7603L87.651 48.6253C87.2597 49.2637 86.7345 49.7528 86.0755 50.0926C85.4165 50.4324 84.7008 50.6023 83.9286 50.6023Z" fill="white"/>
<path d="M95.902 42.6787H97.5702L96.2109 50.4015H94.5428L94.6973 49.4902C93.9765 50.2316 93.0343 50.6023 91.8707 50.6023C90.7484 50.6023 89.8834 50.1801 89.2759 49.3358C88.6786 48.4811 88.483 47.4926 88.6889 46.3702C88.8949 45.2169 89.4046 44.2799 90.2181 43.5591C91.0418 42.8383 91.9943 42.4779 93.0755 42.4779C94.2802 42.4779 95.1503 42.9619 95.6858 43.9298L95.902 42.6787ZM92.365 49.0114C93.024 49.0114 93.6161 48.8106 94.1412 48.409C94.6664 47.9971 95.0113 47.4668 95.1761 46.8181L95.2533 46.3702C95.3254 45.6597 95.1606 45.0985 94.7591 44.6866C94.3575 44.2748 93.8272 44.0688 93.1682 44.0688C92.4989 44.0688 91.8965 44.2851 91.361 44.7175C90.8256 45.15 90.4909 45.7421 90.3571 46.4938C90.2335 47.2146 90.3622 47.8169 90.7432 48.3009C91.1242 48.7746 91.6648 49.0114 92.365 49.0114Z" fill="white"/>
<path d="M106.202 39.5896H107.87L105.97 50.4015H104.302L104.472 49.4748C103.741 50.2265 102.789 50.6023 101.615 50.6023C100.492 50.6023 99.6274 50.1801 99.0199 49.3358C98.4226 48.4811 98.227 47.4926 98.4329 46.3702C98.6389 45.2169 99.1486 44.2799 99.962 43.5591C100.786 42.8383 101.738 42.4779 102.819 42.4779C104.035 42.4779 104.905 42.967 105.43 43.9453L106.202 39.5896ZM102.124 49.0114C102.783 49.0114 103.376 48.8106 103.901 48.409C104.426 47.9971 104.771 47.4617 104.936 46.8027L105.013 46.3548C105.085 45.6443 104.92 45.0882 104.518 44.6866C104.117 44.2748 103.587 44.0688 102.928 44.0688C102.258 44.0688 101.651 44.2851 101.105 44.7175C100.57 45.15 100.235 45.7421 100.101 46.4938C99.9775 47.2146 100.106 47.8169 100.487 48.3009C100.878 48.7746 101.424 49.0114 102.124 49.0114Z" fill="white"/>
<path d="M112.795 42.4779C113.948 42.4779 114.844 42.8744 115.482 43.6672C116.131 44.4601 116.347 45.4229 116.131 46.5556C116.038 46.9263 115.977 47.1579 115.946 47.2506H109.798C109.809 47.8478 110.004 48.3009 110.385 48.6098C110.766 48.9187 111.266 49.0732 111.884 49.0732C112.8 49.0732 113.526 48.7488 114.061 48.1001L115.282 49.0269C114.437 50.0772 113.258 50.6023 111.744 50.6023C110.499 50.6023 109.546 50.1956 108.887 49.3821C108.228 48.5686 107.996 47.5698 108.192 46.3857C108.388 45.253 108.918 44.3211 109.783 43.59C110.648 42.8486 111.652 42.4779 112.795 42.4779ZM110.03 45.876H114.556C114.566 45.2375 114.396 44.7639 114.046 44.455C113.706 44.146 113.253 43.9916 112.687 43.9916C112.079 43.9916 111.539 44.1615 111.065 44.5013C110.602 44.8308 110.257 45.289 110.03 45.876Z" fill="white"/>
<path d="M126.651 42.4779C127.505 42.4779 128.159 42.7662 128.612 43.3429C129.076 43.9195 129.225 44.6763 129.06 45.6134L128.226 50.4015H126.558L127.377 45.7215C127.469 45.186 127.408 44.7742 127.191 44.4858C126.975 44.1872 126.63 44.0379 126.156 44.0379C125.672 44.0379 125.25 44.1975 124.89 44.5167C124.529 44.8359 124.288 45.3199 124.164 45.9686L123.376 50.4015H121.708L122.527 45.7215C122.619 45.186 122.563 44.7742 122.357 44.4858C122.161 44.1872 121.832 44.0379 121.368 44.0379C120.905 44.0379 120.488 44.1872 120.117 44.4858C119.757 44.7742 119.499 45.2118 119.345 45.7987L118.542 50.4015H116.874L118.233 42.6787H119.901L119.747 43.5282C120.385 42.828 121.162 42.4779 122.079 42.4779C123.078 42.4779 123.747 42.8898 124.087 43.7136C124.756 42.8898 125.611 42.4779 126.651 42.4779Z" fill="white"/>
<path d="M136.318 42.6787H138.171L133.8 50.6486C132.719 52.6566 131.298 53.6039 129.537 53.4906L129.815 51.9306C130.32 51.9615 130.742 51.8585 131.082 51.6217C131.421 51.3849 131.746 50.9936 132.055 50.4478L132.194 50.2316L130.294 42.6787H132.008L133.337 48.3472L136.318 42.6787Z" fill="white"/>
</svg>
