<svg width="465" height="477" viewBox="0 0 465 477" fill="none" xmlns="http://www.w3.org/2000/svg">
<path d="M306.837 237.772C306.837 278.827 273.555 312.109 232.5 312.109C191.445 312.109 158.163 278.827 158.163 237.772C158.163 196.717 191.445 163.435 232.5 163.435C273.555 163.435 306.837 196.717 306.837 237.772Z" fill="#003B65"/>
<path d="M465 231.49C465 194.487 435.003 164.49 398 164.49H390.707C353.704 164.49 323.707 194.487 323.707 231.49V311.054H398C435.003 311.054 465 281.058 465 244.054V231.49Z" fill="#003B65"/>
<path d="M0 197.49C0 179.264 14.7746 164.49 33 164.49H141.293V311.054H40C17.9086 311.054 0 293.146 0 271.054V197.49Z" fill="#003B65"/>
<path d="M158.163 368.98C158.163 346.888 176.072 328.98 198.163 328.98H259.456C281.547 328.98 299.456 346.888 299.456 368.98V476.599H198.163C176.072 476.599 158.163 458.69 158.163 436.599V368.98Z" fill="#003B65"/>
<path d="M0 370.034C0 347.943 17.9086 330.034 40 330.034H141.293V476.599H40C17.9086 476.599 0 458.69 0 436.599V370.034Z" fill="#003B65"/>
<path d="M0 67C0 29.9969 29.9969 3.32164e-06 67 3.32164e-06H74.2925C111.296 3.32164e-06 141.293 29.9969 141.293 67V146.565H67C29.9969 146.565 0 116.568 0 79.5646V67Z" fill="#003B65"/>
<path d="M316.327 33C316.327 14.7746 331.101 0 349.327 0H457.619V146.565H356.327C334.235 146.565 316.327 128.656 316.327 106.565V33Z" fill="#003B65"/>
<path d="M299.456 40C299.456 17.9086 281.547 0 259.456 0H158.163V146.565H259.456C281.547 146.565 299.456 128.656 299.456 106.565V40Z" fill="#003B65"/>
</svg>
