<svg width="38" height="38" viewBox="0 0 38 38" fill="none" xmlns="http://www.w3.org/2000/svg">
<circle cx="19" cy="19" r="19" fill="#002F51"/>
<path d="M15.7047 11C13.1222 11 11 13.1193 11 15.7047V22.2953C11 24.8778 13.1193 27 15.7047 27H22.2953C24.8778 27 27 24.8807 27 22.2953V15.7055C27 13.1222 24.8807 11 22.2953 11H15.7047ZM15.7047 12.4545H22.2953C22.7223 12.454 23.1452 12.5376 23.5397 12.7008C23.9343 12.8639 24.2929 13.1033 24.5948 13.4052C24.8967 13.7071 25.1361 14.0657 25.2992 14.4603C25.4624 14.8548 25.546 15.2777 25.5455 15.7047V22.2953C25.546 22.7223 25.4624 23.1452 25.2992 23.5397C25.1361 23.9343 24.8967 24.2929 24.5948 24.5948C24.2929 24.8967 23.9343 25.1361 23.5397 25.2992C23.1452 25.4624 22.7223 25.546 22.2953 25.5455H15.7055C15.2784 25.5461 14.8554 25.4625 14.4608 25.2994C14.0661 25.1363 13.7075 24.897 13.4055 24.595C13.1035 24.2931 12.864 23.9345 12.7009 23.5399C12.5377 23.1453 12.454 22.7223 12.4545 22.2953V15.7055C12.4539 15.2784 12.5375 14.8554 12.7006 14.4608C12.8637 14.0661 13.103 13.7075 13.405 13.4055C13.7069 13.1035 14.0655 12.864 14.4601 12.7009C14.8547 12.5377 15.2777 12.454 15.7047 12.4545ZM23.2953 14.0458C23.2086 14.0454 23.1228 14.0622 23.0427 14.0952C22.9625 14.1282 22.8898 14.1767 22.8285 14.2379C22.7672 14.2992 22.7187 14.372 22.6857 14.4521C22.6528 14.5322 22.636 14.6181 22.6364 14.7047C22.6364 15.0713 22.9287 15.3636 23.2953 15.3636C23.382 15.3641 23.4679 15.3474 23.5481 15.3145C23.6283 15.2815 23.7012 15.233 23.7625 15.1718C23.8239 15.1105 23.8724 15.0377 23.9055 14.9575C23.9385 14.8773 23.9553 14.7914 23.9549 14.7047C23.9553 14.618 23.9385 14.5321 23.9055 14.4519C23.8724 14.3718 23.8239 14.299 23.7625 14.2377C23.7012 14.1764 23.6283 14.1279 23.5481 14.095C23.4679 14.062 23.382 14.0453 23.2953 14.0458ZM19 14.6364C16.6 14.6364 14.6364 16.6 14.6364 19C14.6364 21.4 16.6 23.3636 19 23.3636C21.4 23.3636 23.3636 21.4 23.3636 19C23.3636 16.6 21.4 14.6364 19 14.6364ZM19 16.0909C20.6167 16.0909 21.9091 17.3833 21.9091 19C21.9091 20.6167 20.6167 21.9091 19 21.9091C17.3833 21.9091 16.0909 20.6167 16.0909 19C16.0909 17.3833 17.3833 16.0909 19 16.0909Z" fill="white"/>
</svg>
