<svg width="38" height="38" viewBox="0 0 38 38" fill="none" xmlns="http://www.w3.org/2000/svg">
<circle cx="19" cy="19" r="19" fill="#002F51"/>
<path d="M24.52 13H13.48C13.2145 13 13 13.2145 13 13.48V24.52C13 24.7855 13.2145 25 13.48 25H24.52C24.7855 25 25 24.7855 25 24.52V13.48C25 13.2145 24.7855 13 24.52 13ZM16.5595 23.2255H14.779V17.4985H16.5595V23.2255ZM15.67 16.7155C15.4659 16.7155 15.2664 16.655 15.0967 16.5416C14.9269 16.4282 14.7947 16.267 14.7166 16.0784C14.6384 15.8899 14.618 15.6824 14.6578 15.4822C14.6976 15.282 14.7959 15.0981 14.9403 14.9538C15.0846 14.8094 15.2685 14.7111 15.4687 14.6713C15.6689 14.6315 15.8764 14.6519 16.0649 14.7301C16.2535 14.8082 16.4147 14.9404 16.5281 15.1102C16.6415 15.2799 16.702 15.4794 16.702 15.6835C16.7005 16.2535 16.2385 16.7155 15.67 16.7155ZM23.2255 23.2255H21.4465V20.44C21.4465 19.7755 21.4345 18.922 20.521 18.922C19.5955 18.922 19.453 19.645 19.453 20.392V23.2255H17.6755V17.4985H19.3825V18.2815H19.4065C19.6435 17.8315 20.224 17.356 21.091 17.356C22.894 17.356 23.2255 18.5425 23.2255 20.0845V23.2255Z" fill="white"/>
</svg>
