<svg width="18" height="19" viewBox="0 0 18 19" fill="none" xmlns="http://www.w3.org/2000/svg">
<path d="M0.290258 0.933834L9.03026 9.50483L0.355258 18.1548C0.213689 17.9698 0.10355 17.7627 0.0292576 17.5418C-0.00975253 17.2917 -0.00975253 17.037 0.0292576 16.7868V2.06683C0.0032576 1.67183 0.0942576 1.27683 0.289258 0.933834M12.7953 5.76683L9.94226 8.59283L1.30626 0.0998344C1.58626 0.00283435 1.88626 -0.0241655 2.17926 0.0218345C2.63926 0.147835 3.07826 0.341834 3.48126 0.594834L11.2973 4.91983C11.8053 5.19283 12.3003 5.47983 12.7953 5.76683ZM9.94326 10.4298L12.7823 13.2178L10.7243 14.3638L4.44526 17.8538C3.92526 18.1408 3.40326 18.4148 2.89526 18.7278C2.67794 18.8633 2.43419 18.9508 2.18033 18.9844C1.92647 19.018 1.66835 18.997 1.42326 18.9228L9.94326 10.4298ZM17.3033 9.50483C17.3111 9.85461 17.223 10.1999 17.0484 10.5031C16.8739 10.8063 16.6196 11.0559 16.3133 11.2248L13.9673 12.5268L10.8803 9.50483L13.9803 6.43083C14.7753 6.87383 15.5573 7.31683 16.3383 7.73383C16.6499 7.90774 16.9059 8.16642 17.0765 8.47987C17.2471 8.79332 17.3264 9.14871 17.3033 9.50483Z" fill="black"/>
</svg>
