<svg width="15" height="15" viewBox="0 0 15 15" fill="none" xmlns="http://www.w3.org/2000/svg">
<path d="M13.7501 13.7501L10.6739 10.6739M10.6739 10.6739C11.2001 10.1476 11.6175 9.52294 11.9023 8.83541C12.187 8.14788 12.3336 7.41099 12.3336 6.66681C12.3336 5.92264 12.187 5.18575 11.9023 4.49822C11.6175 3.81069 11.2001 3.18598 10.6739 2.65977C10.1476 2.13356 9.52294 1.71614 8.83541 1.43136C8.14788 1.14658 7.41099 1 6.66681 1C5.92264 1 5.18575 1.14658 4.49822 1.43136C3.81069 1.71614 3.18598 2.13356 2.65977 2.65977C1.59704 3.7225 1 5.16388 1 6.66681C1 8.16974 1.59704 9.61112 2.65977 10.6739C3.7225 11.7366 5.16388 12.3336 6.66681 12.3336C8.16974 12.3336 9.61112 11.7366 10.6739 10.6739Z" stroke="#002855" stroke-opacity="0.7" stroke-linecap="round" stroke-linejoin="round"/>
</svg>
