<svg width="38" height="38" viewBox="0 0 38 38" fill="none" xmlns="http://www.w3.org/2000/svg">
<circle cx="19" cy="19" r="19" fill="#002F51"/>
<path d="M27 14.419C26.4378 14.6645 25.8423 14.8255 25.233 14.8968C25.8726 14.5212 26.3535 13.9256 26.586 13.2213C25.98 13.574 25.3191 13.8225 24.6307 13.9563C24.3409 13.6527 23.9923 13.4113 23.6061 13.2469C23.2199 13.0825 22.8042 12.9985 22.3845 13C20.685 13 19.3073 14.3575 19.3073 16.03C19.3073 16.267 19.3342 16.4988 19.3868 16.72C18.1677 16.662 16.9741 16.3506 15.8821 15.8055C14.7902 15.2604 13.8238 14.4937 13.0447 13.5543C12.7716 14.0151 12.6281 14.5411 12.6292 15.0768C12.6298 15.5777 12.7551 16.0707 12.994 16.5111C13.2328 16.9514 13.5776 17.3253 13.9973 17.599C13.5094 17.5833 13.032 17.453 12.6037 17.2188V17.2563C12.6037 18.7248 13.665 19.9495 15.0712 20.2285C14.807 20.2986 14.5347 20.3342 14.2613 20.3343C14.0625 20.3343 13.8698 20.3155 13.6815 20.278C13.8826 20.8839 14.2673 21.4122 14.7824 21.7895C15.2974 22.1668 15.9171 22.3743 16.5555 22.3832C15.4606 23.2267 14.1164 23.6823 12.7342 23.6785C12.4852 23.6785 12.2408 23.6635 12 23.6365C13.4109 24.5295 15.0469 25.0025 16.7168 25C22.377 25 25.4715 20.3823 25.4715 16.378L25.461 15.9858C26.0646 15.561 26.5861 15.0302 27 14.419Z" fill="white"/>
</svg>
