<svg width="11" height="20" viewBox="0 0 11 20" fill="none" xmlns="http://www.w3.org/2000/svg">
<path d="M5.225 7.12695L3.817 12.762L8.747 19.101M3.113 16.284L1 19.1" stroke="#003B65" stroke-width="1.5" stroke-linecap="round" stroke-linejoin="round"/>
<path d="M1 11.353C1 7.409 3.817 7.127 5.226 7.127H6.634C6.869 8.301 7.902 10.79 10.156 11.353M5.785 5C6.31543 5 6.82414 4.78929 7.19921 4.41421C7.57429 4.03914 7.785 3.53043 7.785 3C7.785 2.46957 7.57429 1.96086 7.19921 1.58579C6.82414 1.21071 6.31543 1 5.785 1C5.25457 1 4.74586 1.21071 4.37079 1.58579C3.99571 1.96086 3.785 2.46957 3.785 3C3.785 3.53043 3.99571 4.03914 4.37079 4.41421C4.74586 4.78929 5.25457 5 5.785 5Z" stroke="#003B65" stroke-width="1.5" stroke-linecap="round" stroke-linejoin="round"/>
</svg>
