<svg width="38" height="38" viewBox="0 0 38 38" fill="none" xmlns="http://www.w3.org/2000/svg">
<circle cx="19" cy="19" r="19" fill="#002F51"/>
<path d="M27.6231 14.8828C27.5212 14.5194 27.3227 14.1905 27.0487 13.9309C26.7669 13.6633 26.4216 13.4719 26.0453 13.3747C24.637 13.0037 18.9948 13.0037 18.9948 13.0037C16.6426 12.977 14.291 13.0946 11.9532 13.356C11.5769 13.4603 11.2322 13.656 10.9498 13.9256C10.6724 14.1925 10.4714 14.5215 10.3664 14.8821C10.1142 16.24 9.99168 17.6189 10.0005 19C9.99146 20.3799 10.1137 21.7583 10.3664 23.1179C10.4691 23.477 10.6694 23.8045 10.9476 24.0691C11.2258 24.3337 11.5723 24.5248 11.9532 24.626C13.3803 24.9963 18.9948 24.9963 18.9948 24.9963C21.3499 25.0231 23.7045 24.9054 26.0453 24.644C26.4216 24.5468 26.7669 24.3554 27.0487 24.0878C27.3226 23.8283 27.5209 23.4993 27.6223 23.1359C27.8811 21.7785 28.007 20.3991 27.998 19.0172C28.0175 17.6295 27.8918 16.2444 27.6231 14.8828ZM17.201 21.5664V16.4343L21.8954 19.0007L17.201 21.5664Z" fill="white"/>
</svg>
